<svg height="512pt" viewBox="0 -64 512.001 512" width="512pt" xmlns="http://www.w3.org/2000/svg"><path d="m219.050781 172.058594c0-17.210938-14.003906-31.214844-31.21875-31.214844-17.210937 0-31.214843 14.003906-31.214843 31.214844 0 17.214844 14.003906 31.21875 31.214843 31.21875 17.214844 0 31.21875-14.003906 31.21875-31.21875zm-47.433593 0c0-8.9375 7.273437-16.214844 16.214843-16.214844 8.941407 0 16.21875 7.273438 16.21875 16.214844s-7.277343 16.214844-16.21875 16.214844c-8.941406 0-16.214843-7.273438-16.214843-16.214844zm0 0"/><path d="m301.621094 272.179688c17.210937 0 31.214844-14.003907 31.214844-31.214844 0-17.214844-14.003907-31.21875-31.214844-31.21875-17.214844 0-31.21875 14.003906-31.21875 31.21875 0 17.210937 14.003906 31.214844 31.21875 31.214844zm0-47.429688c8.9375 0 16.214844 7.273438 16.214844 16.214844 0 8.9375-7.273438 16.214844-16.214844 16.214844-8.945313 0-16.21875-7.273438-16.21875-16.214844s7.273437-16.214844 16.21875-16.214844zm0 0"/><path d="m507.359375 136.085938-129.359375-53.386719c-7.34375-3.03125-15.824219-1.082031-21.101562 4.851562l-30.199219 33.921875v-10.21875c0-.878906-.167969-1.78125-.4375-2.53125-23.449219-65.429687-64.261719-95.820312-80.71875-105.847656-5.609375-3.417969-12.527344-3.8125-18.507813-1.054688l-32.105468 14.792969c-5.117188 2.359375-8.0625 7.675781-7.332032 13.226563.878906 6.6875-3.070312 11.273437-7.0625 13.335937-1.914062.992188-8.640625 3.773438-14.855468-1.980469-4.867188-4.5-11.859376-5.632812-17.820313-2.886718l-143.5 66.132812c-2.613281 1.203125-4.359375 3.871094-4.359375 6.8125v120.097656c0 9.4375 7.675781 17.113282 17.113281 17.113282h141.628907c4.144531 0 7.5-3.359375 7.5-7.5 0-4.144532-3.355469-7.503906-7.5-7.503906h-19.855469c-1.675781-20.742188-19.082031-37.109376-40.246094-37.109376-21.167969 0-38.570313 16.367188-40.246094 37.109376h-41.28125c-1.164062 0-2.113281-.945313-2.113281-2.109376v-112.597656h296.699219v19.570313l-84.6875 95.136719h-33.265625c-4.144532 0-7.5 3.359374-7.5 7.503906 0 4.140625 3.355468 7.5 7.5 7.5h19.914062l-4.90625 5.511718c-3.730468 4.1875-3.925781 10.417969-.46875 14.8125 3.671875 4.671876 4.480469 10.746094 2.15625 16.25-4.101562 9.714844-15.398437 12.523438-23.453125 7.519532-4.691406-2.914063-10.769531-2.035156-14.445312 2.09375l-9.867188 11.089844c-7.261719 8.15625-4.296875 21.070312 5.800781 25.238281l125.804688 51.917969c1.578125.660156 3.425781.773437 5.203125.191406.007813-.003906.011719-.003906.019531-.003906l196.609375-65.257813c9.503907-3.15625 15.886719-12 15.886719-22.011719v-46.34375c0-4.140625-3.355469-7.5-7.5-7.5s-7.5 3.359375-7.5 7.5v46.34375c0 3.535156-2.253906 6.660156-5.609375 7.773438l-29.9375 9.9375c-4.136719-12.394532-15.84375-21.355469-29.609375-21.355469-17.210938 0-31.214844 14-31.214844 31.214844 0 3.375.535156 6.671875 1.578125 9.804687l-80.828125 26.828125 175.621094-197.292969v51.742188c0 4.144531 3.355469 7.5 7.5 7.5s7.5-3.355469 7.5-7.5v-71.449219c0-2.941406-1.804688-5.761719-4.640625-6.933593zm-408.71875 75.265624c12.886719 0 23.566406 9.65625 25.179687 22.109376h-50.359374c1.613281-12.457032 12.289062-22.109376 25.179687-22.109376zm55.496094-159.421874c.433593-.195313.960937-.089844 1.355469.277343 8.761718 8.109375 21.300781 9.792969 31.9375 4.292969 10.1875-5.269531 16.027343-15.707031 15.214843-26.921875l30.667969-14.136719c1.4375-.660156 3.09375-.570312 4.425781.242188 14.242188 8.679687 48.398438 34.0625 70.550781 88.066406h-266.59375zm277.707031 255.242187c7.144531 0 13.226562 4.644531 15.378906 11.078125l-30.773437 10.214844c-.542969-1.625-.820313-3.335938-.820313-5.078125 0-8.941407 7.273438-16.214844 16.214844-16.214844zm1.496094-185.40625c-2.992188 8.117187-10.761719 13.753906-19.824219 13.753906-15.375 0-25.59375-15.992187-19.25-29.878906zm-259.460938 193.949219 7.921875-8.898438c15.9375 7.835938 35.410157.75 42.457031-15.941406 4.097657-9.699219 3.140626-20.324219-2.476562-28.976562l146.320312-164.375c1.042969-1.171876 2.726563-1.554688 4.175782-.960938l8.140625 3.359375c-10.484375 24.011719 7.265625 50.597656 33.097656 50.597656 15.304687 0 28.449219-9.410156 33.695313-23.027343l44.660156 18.429687-196.792969 221.078125-120.878906-49.886719c-.566407-.234375-.730469-.9375-.320313-1.398437zm0 0"/><path d="m89.921875 151.46875c0 12.195312 9.921875 22.121094 22.117187 22.121094 12.199219 0 22.121094-9.925782 22.121094-22.121094s-9.921875-22.117188-22.121094-22.117188c-12.195312-.003906-22.117187 9.921876-22.117187 22.117188zm29.238281 0c0 3.925781-3.195312 7.117188-7.121094 7.117188-3.925781 0-7.117187-3.191407-7.117187-7.117188s3.191406-7.117188 7.117187-7.117188c3.925782 0 7.121094 3.191407 7.121094 7.117188zm0 0"/><path d="m380.695312 232.355469c12.199219 0 22.121094-9.921875 22.121094-22.121094 0-12.195313-9.921875-22.117187-22.121094-22.117187-12.195312 0-22.117187 9.921874-22.117187 22.117187 0 12.199219 9.921875 22.121094 22.117187 22.121094zm0-29.238281c3.925782 0 7.121094 3.195312 7.121094 7.117187 0 3.925781-3.195312 7.121094-7.121094 7.121094-3.921874 0-7.117187-3.195313-7.117187-7.121094 0-3.921875 3.195313-7.117187 7.117187-7.117187zm0 0"/><path d="m304.175781 316.535156c0-12.199218-9.925781-22.121094-22.121093-22.121094-12.195313 0-22.117188 9.921876-22.117188 22.121094 0 12.195313 9.921875 22.117188 22.117188 22.117188 12.195312 0 22.121093-9.921875 22.121093-22.117188zm-22.121093 7.117188c-3.925782 0-7.117188-3.195313-7.117188-7.117188 0-3.925781 3.191406-7.121094 7.117188-7.121094 3.925781 0 7.117187 3.195313 7.117187 7.121094 0 3.925782-3.191406 7.117188-7.117187 7.117188zm0 0"/><path d="m226.0625 41.824219c-12.195312 0-22.117188 9.921875-22.117188 22.121093 0 12.195313 9.921876 22.117188 22.117188 22.117188 12.199219 0 22.121094-9.921875 22.121094-22.117188 0-12.199218-9.921875-22.121093-22.121094-22.121093zm0 29.238281c-3.925781 0-7.117188-3.195312-7.117188-7.117188 0-3.925781 3.191407-7.121093 7.117188-7.121093s7.121094 3.195312 7.121094 7.121093c0 3.921876-3.195313 7.117188-7.121094 7.117188zm0 0"/></svg>