<?xml version="1.0" encoding="iso-8859-1"?>
<!-- Generator: Adobe Illustrator 19.0.0, SVG Export Plug-In . SVG Version: 6.00 Build 0)  -->
<svg xmlns="http://www.w3.org/2000/svg" xmlns:xlink="http://www.w3.org/1999/xlink" version="1.1" id="Layer_1" x="0px" y="0px" viewBox="0 0 512 512" style="enable-background:new 0 0 512 512;" xml:space="preserve" width="512" height="512">
<path d="M465.528,96.015C430.727,34.093,387.653,0,344.229,0c-0.029,0-0.062,0-0.091,0c-31.869,0.034-62.672,18.062-90.135,52.467  C225.52,18.023,194.156,0,162.229,0c-0.028,0-0.063,0-0.092,0C118.683,0.048,76.506,34.37,43.376,96.646  C17.001,146.222-0.024,207.245,0,252.109c0.034,61.802,34.575,114.406,90.87,139.709c7.375,29.318,22.97,55.565,45.685,76.162  C167.865,496.372,210.234,512,255.88,512c0.072,0,0.146,0,0.219,0c82.142-0.09,147.127-49.6,164.998-120.25  c20.367-9.212,38.528-22.373,52.884-38.41c7.367-8.229,6.668-20.874-1.562-28.241s-20.873-6.668-28.241,1.562  c-5.425,6.06-11.613,11.574-18.396,16.446c-2.166-44.924-20.435-103.5-47.768-152.132c-30.514-54.293-67.156-87.814-104.91-96.625  C287.17,72.8,313.588,40.033,344.182,40c0.017,0,0.029,0,0.046,0c27.921,0,59.423,27.559,86.431,75.613  C455.365,159.573,471.98,214.3,472,251.792c0.006,11.043,8.959,19.989,20,19.989c0.003,0,0.008,0,0.011,0  c11.046-0.006,19.995-8.965,19.989-20.011C511.976,207.339,493.734,146.201,465.528,96.015z M40,252.088  C39.957,174.244,100.316,40.068,162.181,40c0.017,0,0.029,0,0.046,0c23.216,0,49.017,19.11,72.951,53.925  c-38.284,8.135-74.813,42.095-104.387,97.688c-25.553,48.032-42.607,106.457-44.595,151.737  C56.835,322.475,40.021,290.063,40,252.088z M343.145,210.572c25.612,45.57,42.834,102.319,42.855,141.213  c0.038,69.574-54.612,120.132-129.944,120.215c-0.06,0-0.117,0-0.176,0c-35.69,0-68.521-11.947-92.456-33.651  c-24.464-22.183-37.405-52.011-37.424-86.258C125.956,271.31,188.737,132.07,253.083,132c0.019,0,0.031,0,0.049,0  C282.272,132,315.08,160.637,343.145,210.572z M216.439,380.71c9.154,8.571,22.808,13.29,38.451,13.29c0.037,0,0.073-0.002,0.111,0  c11.035,0,19.986,8.939,19.999,19.978c0.013,11.046-8.932,20.01-19.978,20.022c-0.043,0-0.089,0-0.132,0  c-25.838,0-49.197-8.553-65.793-24.094c-15.335-14.361-23.615-33.722-24.056-56.069c-0.011-0.28-0.042-0.554-0.042-0.837  c0-0.105,0.014-0.206,0.016-0.311c-0.001-0.228-0.016-0.45-0.016-0.678h0.05C165.569,341.428,174.288,333,185,333  c10.705,0,19.42,8.417,19.949,18.99H205C205.006,364.112,208.748,373.507,216.439,380.71z"/>















</svg>
