<?xml version="1.0" encoding="utf-8"?>
<!-- Generator: Adobe Illustrator 16.0.0, SVG Export Plug-In . SVG Version: 6.00 Build 0)  -->
<!DOCTYPE svg PUBLIC "-//W3C//DTD SVG 1.1//EN" "http://www.w3.org/Graphics/SVG/1.1/DTD/svg11.dtd">
<svg version="1.1" id="Layer_1" xmlns="http://www.w3.org/2000/svg" xmlns:xlink="http://www.w3.org/1999/xlink" x="0px" y="0px"
	 width="152.964px" height="429.941px" viewBox="0 0 152.964 429.941" enable-background="new 0 0 152.964 429.941"
	 xml:space="preserve">
<path fill="#A76A35" d="M110.093,426.277c-2.898-5.905-13.775-6.258-18.634-6.531c-2.164-0.121-4.244-0.847-6.01-2.104l-3.857-2.746
	L95.035,310.9l0.758-3.003c-2.385-2.384-27.875,4.354-27.875,4.354l0.09,102.267c0,0-4.419,11.253-1.229,12.901
	c1.358,0.703,34.654,5.112,42.809,0.311C110.173,427.383,110.393,426.889,110.093,426.277"/>
<path fill="#A76A35" d="M58.733,414.517l0.09-102.267c0,0-25.49-6.737-27.874-4.354l0.758,3.003l13.441,103.995l-3.855,2.746
	c-1.767,1.258-3.846,1.983-6.01,2.104c-4.86,0.273-15.736,0.626-18.635,6.531c-0.299,0.612-0.081,1.106,0.507,1.452
	c8.153,4.802,41.448,0.393,42.808-0.311C63.151,425.77,58.733,414.517,58.733,414.517"/>
<path fill="#173D2B" d="M55.773,423.449c-3.78-0.762-7.702-0.821-11.504-0.172c-0.718,0.124-1.456,0.271-2.167,0.114
	c-0.579-0.127-1.093-0.448-1.603-0.747c-2.013-1.186-4.161-2.126-6.385-2.833c-5.251,0.29-14.78,0.994-17.467,6.466
	c-0.299,0.612-0.081,1.106,0.507,1.452c8.153,4.802,41.449,0.393,42.808-0.311c2.125-1.099,0.873-6.457-0.199-9.914
	C58.052,419.195,56.668,421.213,55.773,423.449"/>
<path fill="#173D2B" d="M70.969,423.449c3.78-0.762,7.701-0.821,11.503-0.172c0.718,0.124,1.456,0.271,2.167,0.114
	c0.579-0.127,1.093-0.448,1.604-0.747c2.012-1.186,4.159-2.126,6.385-2.833c5.251,0.29,14.78,0.994,17.466,6.466
	c0.3,0.612,0.08,1.106-0.506,1.452c-8.154,4.802-41.45,0.393-42.809-0.311c-2.124-1.099-0.873-6.457,0.199-9.914
	C68.689,419.195,70.074,421.213,70.969,423.449"/>
<polyline fill="#E9CDCE" points="67.927,322.693 67.919,313.114 67.927,322.693 "/>
<path fill="#A35F31" d="M67.927,322.693l-0.008-9.579c9.206-0.299,18.396-1.293,27.319-3.017l-0.203,0.803l-1.242,9.607
	C85.225,321.774,76.574,322.536,67.927,322.693"/>
<path fill="#E9CDCE" d="M32.827,319.565L32.827,319.565l-1.12-8.665l-0.049-0.197l0.049,0.197L32.827,319.565 M58.813,322.623
	L58.813,322.623l0.01-9.438L58.813,322.623"/>
<path fill="#A35F31" d="M58.813,322.623c-7.369-0.249-14.716-0.967-21.985-2.254c-1.336-0.235-2.674-0.5-4.001-0.804l-1.12-8.665
	l-0.049-0.197c8.831,1.488,17.969,2.326,27.165,2.482L58.813,322.623"/>
<path fill="#A76A35" d="M13.452,147.486c-3.926,13.136-4.692,26.118-4.898,39.364c-0.008,0.504-0.005,1.04,0.264,1.466
	c0.351,0.557,1.048,0.769,1.687,0.931c10.126,2.561,20.653,2.963,31.039,2.291c9.18-0.594,17.642-3.038,26.593-4.151
	c-0.474-3.364-0.772-6.75-0.896-10.145c-2.925-0.543-35.038-6.274-35.054-6.05c0.401-5.712-0.498-10.497-1.135-18.146
	L13.452,147.486"/>
<path fill="#A76A35" d="M116.212,147.917c3.502,12.523,4.416,25.688,4.622,38.934c0.008,0.504,0.006,1.04-0.263,1.466
	c-0.352,0.557-1.048,0.769-1.688,0.931c-10.126,2.561-20.654,2.963-31.039,2.291c-9.179-0.594-17.642-3.038-26.592-4.151
	c0.474-3.364,0.771-6.75,0.894-10.145c2.925-0.543,35.04-6.274,35.056-6.05c0.693-6.325-0.798-10.899-0.192-17.492L116.212,147.917"
	/>
<path fill="#012A19" d="M104.817,132.077c7.264,23.156,13.235,46.716,17.88,70.535c-2.562,0.873-5.124,1.746-7.686,2.619
	c-4.066-18.079-8.133-36.158-12.2-54.237"/>
<path fill="#0B1D1A" d="M100.975,144.011c6.432,0.914,13.42-0.267,18.38-4.461c4.961-4.194,7.261-11.761,4.284-17.534
	c-2.184-4.237-6.811-7.183-7.775-11.85c-1.167-5.646,3.54-10.789,4.408-16.489c1.648-10.835-8.54-14.865-15.651-19.69
	c-9.131-6.194-7.59-18.744-8.781-28.327c-1.232-9.911-5.488-22.678-15.797-26.438c-12.016-4.382-24.707-4.902-36.309,0.6
	c-13.765,6.532-18.232,21.164-18.902,35.439c-0.277,5.911-1.532,12.196-5.745,16.351c-3.293,3.248-7.935,4.731-11.595,7.557
	c-4.203,3.245-6.963,8.295-7.422,13.585c-0.461,5.29,1.388,10.741,4.969,14.662c1.373,1.503,3.092,3.015,3.188,5.047
	c0.094,1.987-1.404,3.632-2.462,5.316c-2.519,4.018-2.69,9.252-1.021,13.69c1.67,4.438,5.021,8.109,8.95,10.766
	c3.068,2.073,6.595,3.601,10.291,3.805c5.332,0.295,10.093-2.82,13.552-6.639L100.975,144.011"/>
<path fill="#A76A35" d="M62.48,113.814h-1.122c-3.38,0-6.12-2.741-6.12-6.121V87.996h13.362v19.697
	C68.601,111.073,65.86,113.814,62.48,113.814"/>
<path fill="#A76A35" d="M116.524,149.072c-2.592-10.655-17.263-33.992-23.848-39.391c-1.021-0.836-2.266-1.492-3.641-2.004
	c-2.166-0.807-4.479-1.14-6.789-1.14H69.255l-4.479,0.803l-4.479-0.803H44.901c-0.998,0-1.998,0.092-2.977,0.295
	c-2.694,0.56-5.144,1.452-6.846,2.849c-6.586,5.398-19.46,28.735-22.053,39.391c-1.214,4.986,24.279,5.884,51.75,5.43
	C92.246,154.956,117.739,154.058,116.524,149.072"/>
<path fill="#F79B6A" d="M28.958,190.866c0,0-21.719,43.009-26.176,112.195c36.859,13.829,86.721,14.128,123.987-2.823
	c-5.465-36.003-17.776-96.969-31.618-110.81L28.958,190.866"/>
<polyline fill="#F79B6A" points="41.925,106.833 39.406,133.256 43.686,133.399 43.686,106.602 41.925,106.833 "/>
<polyline fill="#F79B6A" points="83.61,106.833 86.129,133.256 81.85,133.399 81.85,106.602 83.61,106.833 "/>
<g>
	<defs>
		<rect id="SVGID_1_" x="-597.036" y="-366.252" width="750" height="846.386"/>
	</defs>
	<clipPath id="SVGID_2_">
		<use xlink:href="#SVGID_1_"  overflow="visible"/>
	</clipPath>
	<path clip-path="url(#SVGID_2_)" fill="#012A19" d="M86.532,136.555c-1.445-8.026-2.93-16.244-2.93-24.442
		c-0.054-1.566-0.055-3.577,1.463-4.519c0.629-0.391,1.389-0.518,2.129-0.521c1.371-0.006,2.744,0.396,3.898,1.139
		c-0.479-0.553-0.959-1.104-1.438-1.657c-1.299-1.498-3.437-1.87-5.376-1.611c-4.628,0.617-6.314,5.911-6.374,9.862
		c-0.12,8.091,0.034,16.148,0.752,24.224c2.502,0.248,5.019,0.355,7.533,0.321c0.224-0.003,0.478-0.021,0.62-0.193
		c0.145-0.173,0.112-0.429,0.072-0.651C86.767,137.858,86.648,137.206,86.532,136.555"/>
	<path clip-path="url(#SVGID_2_)" fill="#173D2B" d="M125.367,192.417c-8.681,2.735-33.267,10.261-51.259,13.629
		c-2.125,0.397-3.6,2.345-3.436,4.511c1.145,15.192,5.956,52.444,8.741,65.235c0.441,2.029,2.259,3.445,4.323,3.354
		c10.093-0.448,40.661-2.769,66.723-14.728c1.822-0.836,2.833-2.823,2.407-4.79c-4.757-21.944-15.116-51.734-22.522-65.212
		C129.371,192.645,127.29,191.812,125.367,192.417"/>
</g>
<path fill="#7E7F2F" d="M89.517,109.228c-0.078-0.803-0.674-1.494-1.402-1.841c-0.729-0.348-1.569-0.391-2.37-0.292
	c-0.065,0.455,0.305,0.852,0.679,1.118c0.862,0.614,1.92,0.952,2.979,0.951"/>
<path fill="#7E7F2F" d="M89.758,108.159c0.211,0.207,0.558,0.144,0.836,0.044c0.953-0.336,1.839-0.921,2.407-1.756
	c0.566-0.835,0.783-1.935,0.439-2.884c-0.984,0.345-1.922,0.882-2.607,1.671c-0.686,0.788-1.098,1.844-0.978,2.881"/>
<path fill="#ADAF4A" d="M81.208,143.955c-2.104-0.622-4.082-1.681-5.652-3.062c-2.411-2.119-2.508-6.561-1.676-9.409
	c0.771-2.635,2.504-4.9,4.438-6.8c0.785-0.771,1.608-1.523,2.261-2.412c0.62-0.846,0.794-1.687,1.142-2.633
	c1.012-2.755,1.516-7.021,4.62-8.189c2.321-0.872,5.006,0.146,6.193,2.313c0.481,0.88,0.639,1.9,0.688,2.902
	c0.11,2.22-0.509,4.65-0.111,6.829c0.427,2.338,1.551,4.573,2.002,6.938c0.562,2.95,0.838,6.681-0.743,9.368
	C91.61,144.489,86.07,145.392,81.208,143.955"/>
<path fill="#0B1D1A" d="M89.225,103.134c1.071,3.78,0.936,7.722-0.393,11.421c-0.123,0.345-0.64,0.102-0.517-0.24
	c1.273-3.543,1.403-7.357,0.377-10.979C88.594,102.986,89.125,102.781,89.225,103.134"/>
<path fill="#0B1D1A" d="M91.018,114.838c-1.878,0.548-3.759-0.172-4.731-1.885c-0.18-0.315,0.281-0.648,0.463-0.331
	c0.839,1.479,2.42,2.163,4.066,1.685C91.165,114.205,91.369,114.736,91.018,114.838"/>
<path fill="#A35F31" d="M61.014,99.909c-1.93,0-3.86-0.124-5.775-0.372v-7.082c1.378,0.22,2.79,0.332,4.229,0.332h4.905
	c1.438,0,2.851-0.112,4.229-0.332v6.809C66.096,99.694,63.555,99.909,61.014,99.909"/>
<path fill="#A76A35" d="M64.372,92.787h-4.905c-14.782,0-26.766-11.982-26.766-26.765V48.985c0-14.783,11.983-26.766,26.766-26.766
	h4.905c14.782,0,26.767,11.983,26.767,26.766v17.037C91.139,80.804,79.154,92.787,64.372,92.787"/>
<path fill="#0B1D1A" d="M59.169,52.82c0.209,2.663,0.418,5.325,0.627,7.987c0.098,1.248,1.029,4.834-1.105,5.114
	c-0.681,0.092-1.612-0.09-2.231,0.338c-2.771,1.909-0.555,4.892,1.312,6.474c0.438,0.372,1.076-0.26,0.635-0.635
	c-0.719-0.61-1.338-1.171-1.903-1.945c-1.51-2.066,1.021-3.178,2.706-3.401c0.572-0.075,1.498-0.489,1.645-1.145
	c0.401-1.796-0.086-3.869-0.229-5.688c-0.187-2.366-0.372-4.732-0.559-7.1C60.021,52.246,59.123,52.242,59.169,52.82"/>
<path fill="#0B1D1A" d="M54.61,73.663c1.463,1.76,3.389,3.262,5.843,2.81c2.353-0.434,4.008-2.03,4.63-4.323
	c0.15-0.561-0.715-0.797-0.866-0.24c-0.588,2.172-2.202,3.564-4.451,3.721c-1.958,0.139-3.371-1.219-4.52-2.602
	C54.876,72.582,54.245,73.221,54.61,73.663"/>
<path fill="#0B1D1A" d="M44.96,53.517c1.742-2.379,4.535-3.553,7.45-3.24c0.575,0.061,0.569-0.836,0-0.898
	c-3.248-0.348-6.305,1.063-8.226,3.685C43.842,53.531,44.621,53.979,44.96,53.517"/>
<path fill="#0B1D1A" d="M74.688,53.064c-1.92-2.622-4.978-4.033-8.226-3.685c-0.569,0.062-0.575,0.959,0,0.898
	c2.915-0.313,5.708,0.861,7.451,3.24C74.251,53.979,75.03,53.531,74.688,53.064"/>
<path fill="#0B1D1A" d="M52.133,62.636c0,2.034-0.973,3.684-2.173,3.684s-2.173-1.649-2.173-3.684s0.973-3.685,2.173-3.685
	S52.133,60.602,52.133,62.636"/>
<path fill="#0B1D1A" d="M71.423,62.636c0,2.034-0.973,3.684-2.173,3.684s-2.173-1.649-2.173-3.684s0.973-3.685,2.173-3.685
	S71.423,60.602,71.423,62.636"/>
<path fill="#A76A35" d="M25.208,69.903c3.037,3.976,7.769,5.465,10.568,3.328c2.799-2.139,2.606-7.096-0.43-11.072
	c-3.037-3.976-7.769-5.465-10.568-3.328C21.979,60.97,22.172,65.927,25.208,69.903"/>
<path fill="#9B6331" d="M45.993,73.856c-3.392,0-6.14-1.988-6.14-4.438s2.748-4.437,6.14-4.437c0.894,0,1.742,0.137,2.508,0.385
	c0.386,0.593,0.896,0.954,1.459,0.954c0.123,0,0.243-0.017,0.36-0.05c1.119,0.804,1.812,1.917,1.812,3.147
	C52.133,71.868,49.384,73.856,45.993,73.856"/>
<path fill="#091B18" d="M49.96,66.32c-0.562,0-1.073-0.361-1.459-0.954c0.681,0.221,1.297,0.529,1.819,0.904
	C50.203,66.303,50.083,66.32,49.96,66.32"/>
<path fill="#9B6331" d="M73.217,73.856c-3.391,0-6.14-1.988-6.14-4.438c0-1.23,0.692-2.344,1.812-3.147
	c0.117,0.033,0.237,0.05,0.36,0.05c0.562,0,1.073-0.361,1.459-0.954c0.766-0.248,1.614-0.385,2.508-0.385
	c3.39,0,6.14,1.986,6.14,4.437S76.606,73.856,73.217,73.856"/>
<path fill="#091B18" d="M69.25,66.32c-0.123,0-0.243-0.017-0.36-0.05c0.522-0.375,1.139-0.684,1.819-0.904
	C70.323,65.958,69.812,66.32,69.25,66.32"/>
<path fill="#0B1D1A" d="M29.671,46.679c10.056-1.971,19.837-5.334,28.979-9.962c5.33-2.698,10.981-6.592,11.822-12.506
	c0.096-0.683,0.118-1.408-0.18-2.03c-0.235-0.492-0.65-0.875-1.085-1.204c-2.521-1.909-5.85-2.345-9.01-2.41
	c-5.616-0.118-11.327,0.754-16.387,3.193c-5.061,2.438-9.429,6.538-11.579,11.726"/>
<path fill="#0B1D1A" d="M64.896,19.211c-1.085,5.526-0.18,11.422,2.512,16.369c2.692,4.948,7.151,8.908,12.382,10.999
	c0.379,6.887,5.604,13.232,12.291,14.922c1.554-9.199,1.441-18.975-2.43-27.464c-3.869-8.488-12.059-15.397-21.378-15.83"/>
<path fill="#A76A35" d="M98.677,69.903c-3.037,3.976-7.769,5.465-10.568,3.328c-2.799-2.139-2.606-7.096,0.431-11.072
	c3.037-3.976,7.769-5.465,10.567-3.328C101.906,60.97,101.714,65.927,98.677,69.903"/>
<path fill="#979739" d="M41.384,88.954c4.596,17.646,7.799,35.617,11.854,53.388c0.148,0.646,1.155,0.428,1.008-0.222
	c-4.056-17.769-7.26-35.741-11.854-53.386C42.224,88.092,41.216,88.31,41.384,88.954"/>
<path fill="#979739" d="M26.994,99.524c7.833,14.294,14.536,29.171,21.929,43.689c0.302,0.593,1.214,0.112,0.912-0.479
	c-7.393-14.521-14.096-29.397-21.929-43.691C27.588,98.461,26.674,98.94,26.994,99.524"/>
<path fill="#979739" d="M50.937,128.087c-0.654,1.93-1.569,3.402-2.846,4.921c-0.967,1.147-1.547,2.619-1.717,4.105
	c-0.69-0.452-1.499-1.049-2.319-1.216c-0.607-0.124-1.26-0.144-1.879-0.262c-1.489-0.287-3.043-0.45-4.445-1.062
	c-0.696-0.303-1.266-0.813-1.893-1.223c-0.724-0.474-1.392-0.98-1.776-1.781c-0.431-0.895-0.371-2.071,0.328-2.777
	c0.444-0.448,1.116-0.704,1.363-1.286c0.302-0.706-0.199-1.508-0.795-1.994c-1.619-1.323-3.925-1.455-5.688-2.58
	c-1.799-1.148-4.025-4.917-1.903-6.749c0.45-0.391,1.052-0.567,1.509-0.949c0.891-0.746,1.016-2.116,0.633-3.212
	c-0.382-1.097-1.167-1.997-1.892-2.906c-0.985-1.234-1.902-2.568-2.341-4.087c-0.564-1.965-0.058-4.501,1.539-5.895
	c1.485-1.296,3.848-0.714,5.467,0.41c3.251,2.257,4.958,6.158,5.864,10.011c0.165,0.704,0.542,1.594,1.261,1.518
	c0.624-0.063,0.876-0.809,1.216-1.337c0.771-1.193,2.545-1.47,3.793-0.791c1.247,0.678,1.966,2.103,2.082,3.518
	c0.116,1.416-0.292,2.826-0.85,4.134c-0.55,1.292-1.556,2.962-0.9,4.393c1.006,2.198,2.889,0.469,4.61,1.033
	c1.109,0.362,1.846,1.481,2.035,2.632C51.583,125.806,51.312,126.984,50.937,128.087"/>
<path fill="#979739" d="M57.887,93.107c-1.144,16.258-1.018,32.575-1.668,48.854c-0.026,0.665,1.004,0.72,1.03,0.057
	c0.649-16.281,0.523-32.599,1.667-48.857C58.963,92.496,57.934,92.445,57.887,93.107"/>
<path fill="#979739" d="M49.099,129.116c1.401,1.479,2.848,2.437,4.642,3.282c1.358,0.639,2.5,1.733,3.275,3.013
	c0.438-0.7,0.924-1.581,1.6-2.075c0.499-0.365,1.084-0.654,1.597-1.021c1.233-0.883,2.577-1.681,3.596-2.823
	c0.506-0.565,0.81-1.268,1.208-1.902c0.461-0.73,0.855-1.471,0.87-2.358c0.018-0.994-0.529-2.037-1.458-2.387
	c-0.592-0.223-1.31-0.174-1.776-0.599c-0.57-0.517-0.449-1.454-0.111-2.145c0.918-1.879,2.957-2.962,4.089-4.722
	c1.154-1.793,1.603-6.147-1.091-6.927c-0.571-0.165-1.192-0.075-1.767-0.23c-1.122-0.306-1.808-1.498-1.918-2.654
	c-0.111-1.157,0.227-2.302,0.504-3.43c0.38-1.534,0.656-3.128,0.419-4.691c-0.308-2.021-1.827-4.115-3.86-4.713
	c-1.892-0.556-3.794,0.96-4.795,2.657c-2.011,3.407-1.932,7.667-1.146,11.545c0.144,0.709,0.173,1.675-0.511,1.907
	c-0.595,0.2-1.134-0.37-1.663-0.707c-1.199-0.764-2.927-0.274-3.777,0.864c-0.85,1.139-0.907,2.732-0.422,4.067
	c0.486,1.335,1.446,2.445,2.498,3.4c1.041,0.942,2.652,2.041,2.655,3.614c0.004,2.416-2.429,1.634-3.758,2.864
	c-0.856,0.792-1.058,2.118-0.749,3.243S48.297,128.27,49.099,129.116"/>
<path fill="#ADAF4A" d="M59.497,126.508c-1.237,1.912-2.632,3.263-4.432,4.56c-1.361,0.981-2.394,2.419-2.983,3.986
	c-0.626-0.681-1.34-1.55-2.185-1.954c-0.624-0.3-1.326-0.498-1.966-0.797c-1.537-0.719-3.179-1.32-4.533-2.366
	c-0.673-0.52-1.149-1.23-1.719-1.845c-0.656-0.711-1.241-1.442-1.44-2.416c-0.223-1.091,0.162-2.35,1.114-2.925
	c0.604-0.364,1.404-0.459,1.831-1.021c0.521-0.687,0.195-1.692-0.317-2.382c-1.396-1.879-3.86-2.652-5.466-4.354
	c-1.637-1.734-3.022-6.433-0.221-7.842c0.594-0.298,1.296-0.327,1.896-0.616c1.17-0.564,1.681-2.018,1.565-3.312
	c-0.117-1.294-0.722-2.486-1.259-3.668c-0.731-1.61-1.363-3.308-1.422-5.073c-0.077-2.288,1.165-4.9,3.279-5.975
	c1.965-1,4.367,0.276,5.817,1.938c2.91,3.336,3.696,8.036,3.627,12.461c-0.013,0.811,0.152,1.878,0.953,1.993
	c0.695,0.099,1.171-0.639,1.685-1.119c1.161-1.084,3.161-0.9,4.329,0.177c1.17,1.077,1.56,2.819,1.3,4.387
	c-0.261,1.566-1.091,2.985-2.052,4.251c-0.949,1.252-2.496,2.789-2.176,4.521c0.49,2.658,3.005,1.298,4.719,2.379
	c1.104,0.697,1.598,2.112,1.489,3.412C60.822,124.208,60.206,125.412,59.497,126.508"/>
<path fill="#BF3A5C" d="M62.528,141.958c-2.024-0.979-4.297-1.363-6.545-1.405c-3.393-0.063-6.813,1.044-9.274,3.439
	c-3.328,3.243-5.694,9.244-2.421,13.363c1.602,2.015,4.374,2.564,6.888,3.119c2.513,0.554,5.289,1.47,6.422,3.781
	c-0.53-1.078,2.701-4.284,3.404-4.883c1.554-1.319,3.532-1.787,5.002-3.164c1.669-1.563,2.97-3.775,2.652-6.041
	C68.265,147.374,65.031,143.169,62.528,141.958"/>
<path fill="#F0517C" d="M43.096,150.442c3.374-0.207,6.62-0.887,9.794-2.051c0.248-0.092,0.053-0.455-0.192-0.365
	c-3.104,1.138-6.28,1.802-9.58,2.003C42.854,150.045,42.83,150.458,43.096,150.442"/>
<path fill="#F0517C" d="M48.498,154.605c2.335-0.308,4.562-0.939,6.713-1.896c0.242-0.107,0.05-0.473-0.192-0.364
	c-2.121,0.943-4.31,1.556-6.609,1.857C48.146,154.236,48.235,154.64,48.498,154.605"/>
<path fill="#F0517C" d="M54.998,145.237c2.886-0.526,5.657-1.372,8.348-2.539c0.244-0.104,0.051-0.469-0.191-0.365
	c-2.659,1.153-5.396,1.982-8.244,2.502C54.646,144.883,54.737,145.285,54.998,145.237"/>
<path fill="#F0517C" d="M59.61,148.344c1.152-0.254,2.271-0.606,3.364-1.051c0.246-0.1,0.052-0.464-0.192-0.364
	c-1.06,0.431-2.144,0.766-3.261,1.013C59.263,147.999,59.351,148.401,59.61,148.344"/>
<path fill="#F0517C" d="M45.721,145.773c1.884-0.125,3.737-0.403,5.574-0.84c0.258-0.062,0.17-0.465-0.089-0.403
	c-1.8,0.429-3.616,0.708-5.463,0.83C45.479,145.377,45.456,145.79,45.721,145.773"/>
<path fill="#F0517C" d="M47.021,159.344c1.353,0.028,2.677-0.128,3.983-0.477c0.256-0.067,0.169-0.472-0.089-0.402
	c-1.271,0.339-2.557,0.495-3.871,0.468C46.778,158.927,46.756,159.338,47.021,159.344"/>
<path fill="#F0517C" d="M60.439,155.536c2.731-0.451,5.244-1.416,7.575-2.912c0.221-0.142,0.032-0.51-0.192-0.364
	c-2.296,1.474-4.778,2.43-7.471,2.874C60.089,155.177,60.178,155.579,60.439,155.536"/>
<path fill="#F0517C" d="M56.456,159.384c0.708-0.167,1.381-0.412,2.029-0.74c0.237-0.12,0.046-0.486-0.191-0.366
	c-0.616,0.313-1.254,0.545-1.926,0.704C56.108,159.042,56.197,159.445,56.456,159.384"/>
<path fill="#F0517C" d="M63.873,151.068c0.782-0.17,1.518-0.448,2.216-0.839c0.23-0.13,0.04-0.496-0.192-0.366
	c-0.667,0.375-1.364,0.64-2.112,0.802C63.524,150.722,63.613,151.125,63.873,151.068"/>
<path fill="#BF3A5C" d="M74.167,117.545c-2.664-0.465-5.013,0.247-7.002,2.061c-0.204,0.185-0.419,0.389-0.691,0.432
	c-0.258,0.042-0.512-0.068-0.753-0.169c-3.722-1.533-8.661-1.119-10.022,3.21c-0.931,2.96-1.131,6.42-0.463,9.452
	c0.582,2.655,2.346,5.035,4.746,6.322c3.002,1.607,6.111,1.093,9.293,0.732c3.364-0.38,6.662-1.753,9.222-3.981
	c2.861-2.492,2.19-7.093,1.545-10.488C79.433,121.918,77.735,118.167,74.167,117.545"/>
<path fill="#7E7F2F" d="M66.343,117.636c-0.905,0.289-1.906,0.047-2.75-0.391c-1.3-0.673-2.353-1.81-2.922-3.158
	c-0.568-1.349-0.65-2.896-0.226-4.297c1.087,0.114,2.104,0.643,2.919,1.37c0.814,0.729,1.436,1.653,1.93,2.626
	c0.625,1.232,1.064,2.628,0.812,3.986"/>
<path fill="#7E7F2F" d="M66.58,114.232c0.524-1.13,1.539-2.023,2.727-2.397c1.481-0.468,3.084-0.141,4.595,0.221
	c-0.277,0.943-1.159,1.584-2.06,1.979c-1.353,0.596-2.872,0.804-4.335,0.593c-0.288-0.041-0.583-0.101-0.821-0.268"/>
<path fill="#0B1D1A" d="M67.523,108.156c-1.484,4.912-1.87,10.039-1.097,15.115c0.066,0.429,0.737,0.352,0.671-0.079
	c-0.754-4.951-0.403-9.971,1.046-14.765C68.269,108.015,67.649,107.74,67.523,108.156"/>
<path fill="#0B1D1A" d="M61.593,122.881c3.727,1.727,8.466,1.02,10.366-2.967c0.188-0.394-0.433-0.663-0.619-0.27
	c-1.743,3.657-6.097,4.183-9.477,2.617C61.467,122.078,61.198,122.698,61.593,122.881"/>
<path fill="#0B1D1A" d="M89.756,72.461c0.603-5.033,2.723-10.368,8.139-11.688c0.562-0.137,0.324-1.002-0.238-0.866
	c-5.827,1.419-8.146,7.122-8.799,12.554C88.789,73.036,89.688,73.029,89.756,72.461"/>
<path fill="#0B1D1A" d="M90.627,68.69c1.615-0.754,3.312-1.137,5.095-1.167c0.578-0.01,0.579-0.908,0-0.898
	c-1.942,0.032-3.788,0.469-5.548,1.289C89.648,68.159,90.105,68.933,90.627,68.69"/>
<path fill="#0B1D1A" d="M25.906,61.442c4.021,0.438,6.809,5.896,7.7,9.312c0.147,0.561,1.014,0.321,0.867-0.238
	c-1.018-3.895-4.086-9.483-8.567-9.973C25.331,60.482,25.337,61.379,25.906,61.442"/>
<path fill="#0B1D1A" d="M27.571,67.121c1.499-0.395,3.001-0.458,4.525-0.17c0.565,0.107,0.808-0.758,0.238-0.866
	c-1.682-0.316-3.346-0.266-5.002,0.17C26.773,66.403,27.011,67.269,27.571,67.121"/>
<path fill="#C86D31" d="M98.475,131.354c-0.753-0.663-13.021-0.928-27.274-1.009v-0.029c-2.239-0.002-4.501-0.001-6.751,0.003
	c-2.251-0.004-4.514-0.005-6.752-0.003v0.029c-14.253,0.081-26.521,0.346-27.274,1.009c-1.845,1.624,2.503,56.904,6.09,77.271
	c5.745,1.07,13.411,1.6,21.185,1.822v0.126c2.18,0.018,4.447,0.019,6.752-0.002c2.305,0.021,4.571,0.02,6.751,0.002v-0.126
	c7.774-0.223,15.44-0.752,21.185-1.822C95.972,188.258,100.319,132.978,98.475,131.354"/>
<path fill="#D5712D" d="M74.782,201.747c-10.743,0-21.3-1.615-31.916-2.978l-2.389-52.381c7.195-1.982,14.723-2.605,22.249-2.605
	c4.966,0,9.931,0.271,14.797,0.604c4.187,0.284,8.359,0.661,12.495,1.202c-0.128,2.722-0.712,14.487-1.855,27.054
	c-9.738,1.676-24.105,4.246-26.017,4.6c-0.122,3.395-0.42,6.782-0.894,10.145c1.908,0.236,3.794,0.534,5.67,0.862
	c0.005,0.003,0.011,0.008,0.017,0.011c2.207,0.386,4.402,0.81,6.602,1.224c4.084,0.776,8.184,1.519,12.422,1.908
	c-0.587,3.788-1.243,7.19-1.974,9.891c-0.274,0.065-0.564,0.12-0.852,0.178c-1.573,0.096-3.133,0.165-4.665,0.222
	C77.239,201.726,76.01,201.747,74.782,201.747"/>
<path fill="#FEC356" d="M6.66,296.699c-1.112-0.331-2.221-0.677-3.326-1.034c-0.204,2.433-0.392,4.895-0.552,7.396
	c36.859,13.828,86.721,14.128,123.987-2.823c-0.363-2.394-0.758-4.902-1.181-7.497c-1.698,0.576-3.41,1.11-5.119,1.619
	C83.588,305.334,43.545,307.665,6.66,296.699"/>
<path fill="#A76A35" d="M116.212,147.917l-15.209,4.58c-0.12,0.422-0.242,0.844-0.378,1.262c-0.049,0.354-0.092,0.664-0.111,0.759
	c-0.27,1.263-0.52,2.53-0.8,3.792c-0.496,2.226-1.071,4.4-1.894,6.531c-0.12,0.312-0.288,0.582-0.478,0.829
	c0.079,1.747,0.075,3.551-0.141,5.522c-0.016-0.225-32.131,5.507-35.056,6.05c-0.122,3.395-0.42,6.782-0.894,10.145
	c8.95,1.113,17.413,3.558,26.592,4.151c10.385,0.672,20.913,0.27,31.039-2.291c0.64-0.162,1.336-0.374,1.688-0.931
	c0.269-0.426,0.271-0.962,0.263-1.466C120.628,173.604,119.714,160.44,116.212,147.917"/>
<path fill="#F79B6A" d="M123.699,218.072c-7.409-4.414-19.807-3.849-26.284,2.223c-3.477,3.26-5.57,7.84-6.244,12.557
	c-1.562,10.943,4.984,22.632,16.595,23.481c15.604,1.144,29.648-9.178,25.157-25.766
	C131.528,225.418,128.195,220.75,123.699,218.072"/>
<path fill="#F79B6A" d="M87.332,215.039c0.687,1.226,1.526,2.343,2.511,3.343c0.406,0.413,1.041-0.222,0.635-0.635
	c-0.933-0.949-1.72-2.001-2.371-3.161C87.823,214.081,87.048,214.533,87.332,215.039"/>
<path fill="#F79B6A" d="M78.907,228.338c1.541,0.341,3.082,0.682,4.623,1.021c0.564,0.125,0.804-0.741,0.238-0.866
	c-1.541-0.341-3.081-0.68-4.622-1.02C78.582,227.349,78.343,228.213,78.907,228.338"/>
<path fill="#F79B6A" d="M81.448,247.474c1.444-0.906,2.888-1.814,4.332-2.722c0.488-0.307,0.037-1.084-0.453-0.774
	c-1.444,0.907-2.888,1.813-4.332,2.721C80.507,247.005,80.957,247.783,81.448,247.474"/>
<path fill="#F79B6A" d="M88.666,261.408c1.178-1.715,2.355-3.429,3.533-5.144c0.329-0.479-0.449-0.928-0.774-0.453
	c-1.178,1.715-2.357,3.429-3.534,5.144C87.562,261.434,88.341,261.882,88.666,261.408"/>
<path fill="#F79B6A" d="M100.866,207.877c0.313,1.744,0.861,3.405,1.629,5.001c0.251,0.522,1.025,0.065,0.775-0.452
	c-0.734-1.526-1.239-3.12-1.539-4.786C101.63,207.07,100.765,207.313,100.866,207.877"/>
<path fill="#F79B6A" d="M116.095,211.142c0.552-1.662,1.254-3.249,2.109-4.777c0.283-0.505-0.492-0.959-0.775-0.453
	c-0.893,1.595-1.624,3.257-2.2,4.99C115.046,211.453,115.913,211.688,116.095,211.142"/>
<path fill="#F79B6A" d="M125.176,214.855c1.079-1.18,2.158-2.36,3.237-3.539c0.39-0.426-0.243-1.063-0.635-0.635
	c-1.079,1.179-2.158,2.358-3.237,3.539C124.149,214.647,124.784,215.282,125.176,214.855"/>
<path fill="#F79B6A" d="M135.821,225.259c0.726-0.169,1.451-0.34,2.177-0.509c0.563-0.131,0.325-0.997-0.238-0.864
	c-0.726,0.169-1.451,0.338-2.177,0.508C135.019,224.525,135.258,225.39,135.821,225.259"/>
<path fill="#F79B6A" d="M104.969,262.698c-0.468,1.496-0.565,3.008-0.331,4.557c0.086,0.57,0.95,0.327,0.865-0.238
	c-0.209-1.386-0.086-2.744,0.332-4.079C106.008,262.383,105.142,262.148,104.969,262.698"/>
<path fill="#F79B6A" d="M123.392,260.855c0.701,1.635,1.402,3.271,2.104,4.907c0.228,0.53,1.001,0.072,0.775-0.453
	c-0.701-1.637-1.402-3.272-2.104-4.907C123.939,259.87,123.167,260.328,123.392,260.855"/>
<path fill="#F79B6A" d="M134.12,253.975c1.237,0.642,2.539,1.107,3.908,1.386c0.564,0.115,0.806-0.751,0.238-0.866
	c-1.294-0.261-2.521-0.687-3.693-1.296C134.06,252.934,133.605,253.708,134.12,253.975"/>
<path fill="#F79B6A" d="M137.759,241.803c1.625,0.567,3.283,0.941,4.991,1.146c0.574,0.07,0.567-0.829,0-0.896
	c-1.626-0.195-3.207-0.574-4.753-1.115C137.449,240.746,137.216,241.613,137.759,241.803"/>
<path fill="#173D2B" d="M97.785,234.195c0.386,2.052,1.523,5.71,4.21,5.415c3.017-0.332,2.365-5.529,2.424-7.467
	c0.018-0.579-0.88-0.578-0.897,0c-0.055,1.806,0.26,4.191-0.629,5.818c-1.159,2.122-2.738-0.079-3.268-1.046
	c-0.503-0.919-0.782-1.936-0.974-2.959C98.544,233.389,97.679,233.629,97.785,234.195"/>
<path fill="#173D2B" d="M116.435,229.615c0.563,1.887,2.563,6.208,5.104,5.586c1.146-0.28,1.755-2.134,2.062-3.091
	c0.486-1.517,0.352-3.189-0.141-4.679c-0.181-0.547-1.048-0.313-0.865,0.238c0.7,2.119,0.436,4.246-0.771,6.127
	c-1.471,2.298-4.257-3.522-4.523-4.42C117.136,228.823,116.269,229.059,116.435,229.615"/>
<path fill="#173D2B" d="M107.327,234.06c-0.125,1.531,2.301,3.034,3.687,2.666c2.062-0.549,2.324-2.71,2.304-4.529
	c-0.007-0.578-0.905-0.579-0.898,0c0.014,1.164,0.018,2.354-0.835,3.249c-0.854,0.897-3.467-0.068-3.359-1.386
	C108.272,233.483,107.374,233.487,107.327,234.06"/>
<path fill="#D2692C" d="M73.541,189.483c-2.199-0.414-4.395-0.838-6.602-1.224c-0.006-0.003-0.012-0.008-0.017-0.011
	C69.137,188.636,71.336,189.064,73.541,189.483"/>
<path fill="#A46132" d="M80.304,190.669c-2.271-0.353-4.52-0.765-6.763-1.187c-2.205-0.419-4.404-0.847-6.618-1.234
	c-1.084-0.648-1.956-1.479-2.438-2.85c-0.943-2.687-0.854-5.896,0.143-8.606c2.891-0.519,7.76-1.388,12.871-2.289
	c-0.394,0.206-0.794,0.396-1.208,0.557c2.627,0.166,5.179,1.327,7.029,3.199c0.569,0.574,1.104,1.401,0.778,2.143
	c-0.133,0.302-0.392,0.531-0.661,0.722c-0.874,0.622-1.947,0.942-3.02,0.942c-0.758,0-1.515-0.16-2.199-0.486
	c0.905,0.545,1.812,1.115,2.539,1.88c0.728,0.767,1.272,1.758,1.303,2.813c0.012,0.414-0.072,0.863-0.377,1.142
	c-0.267,0.245-0.638,0.308-1.009,0.308c-0.104,0-0.209-0.005-0.311-0.013c-1.061-0.075-2.11-0.308-3.104-0.686
	c1.099,1.04,2.166,2.14,2.936,3.444L80.304,190.669"/>
<path fill="#A76A35" d="M79.928,178.974c-2.722-2.112-6.456-2.174-9.901-2.146c2.049-1.04,3.991-2.286,5.791-3.714
	c0.269-0.213,0.555-0.467,0.584-0.809c0.076-0.833-1.192-0.944-1.986-0.68c-4.587,1.529-9.088,4.155-13.791,4.427
	c-10.249-1.828-28.426-5.03-28.438-4.86c0.011-0.162-0.441-0.583-0.432-0.743c-1.022-0.681-1.268-1.608-1.007-3.125
	c0.51-2.963-0.597-6.054-1.058-8.956c-0.306-1.93-0.342-4.006-0.657-5.96l-15.581-4.923c-3.926,13.136-4.692,26.118-4.898,39.364
	c-0.008,0.504-0.005,1.04,0.264,1.466c0.351,0.557,1.048,0.769,1.687,0.931c10.126,2.561,20.653,2.963,31.04,2.291
	c8.407-0.544,16.218-2.629,24.35-3.834c1.322,1.61,2.324,3.573,3.547,5.288c0.312,0.438,0.663,0.879,1.155,1.093
	c0.492,0.215,1.161,0.116,1.428-0.35c0.166-0.286,0.149-0.637,0.117-0.966c-0.252-2.574-1.141-5.082-2.565-7.24
	c1.303,1.331,4.694,6.03,7.453,5.794c2.53-1.895-4.825-6.175-5.779-7.901c2.097,0.611,4.193,1.224,6.29,1.835
	c0.328,0.096,0.689,0.188,1.002,0.052c0.842-0.371,0.323-1.66-0.351-2.287c-1.478-1.378-3.248-2.443-5.158-3.103
	c1.92,0.274,3.849,0.488,5.782,0.644c0.707,0.056,1.706-0.174,1.626-0.879C80.407,179.384,80.165,179.157,79.928,178.974"/>
<path fill="#0B1D1A" d="M94.126,8.623c4.292,7.434,2.964,16.236-2.967,19.66c-5.932,3.424-14.219,0.173-18.511-7.26
	c-4.292-7.434-2.963-16.236,2.968-19.66S89.834,1.19,94.126,8.623"/>
<path fill="#0B1D1A" d="M107.352,23.257c0,6.529-6.418,11.822-14.336,11.822c-7.917,0-14.335-5.293-14.335-11.822
	s6.418-11.822,14.335-11.822C100.934,11.435,107.352,16.728,107.352,23.257"/>
</svg>
