<svg height="512pt" viewBox="-27 0 512 512" width="512pt" xmlns="http://www.w3.org/2000/svg"><path d="m356 82.101562c-2.628906 0-5.210938 1.070313-7.070312 2.929688-1.859376 1.859375-2.929688 4.4375-2.929688 7.070312 0 2.628907 1.070312 5.207032 2.929688 7.070313 1.859374 1.859375 4.441406 2.929687 7.070312 2.929687s5.210938-1.070312 7.070312-2.929687c1.859376-1.863281 2.929688-4.441406 2.929688-7.070313 0-2.632812-1.070312-5.210937-2.929688-7.070312-1.859374-1.859375-4.441406-2.929688-7.070312-2.929688zm0 0"/><path d="m428.058594 42.21875h-145.457032c-.957031-15.894531-14.1875-28.53125-30.3125-28.53125-4.867187 0-9.464843 1.15625-13.546874 3.199219-4.976563-9.996094-15.296876-16.886719-27.203126-16.886719-7.832031 0-14.980468 2.980469-20.375 7.867188-5.390624-4.886719-12.542968-7.867188-20.375-7.867188-11.902343 0-22.226562 6.890625-27.203124 16.886719-4.082032-2.042969-8.679688-3.199219-13.546876-3.199219-16.746093 0-30.371093 13.625-30.371093 30.375v113.9375h-31.683594c-5.523437 0-10 4.476562-10 10v15.933594c-36.902344 36.617187-57.984375 87.078125-57.984375 139.148437v138.917969c0 27.570312 22.429688 50 50 50h233.859375c27.570313 0 50-22.429688 50-50v-140.441406c0-51.210938-20.507813-101.113282-56.394531-137.554688v-16.003906c0-5.523438-4.476563-10-10-10h-43.042969v-16.558594c6.207031-2.917968 11.269531-7.878906 14.320313-14.007812 4.082031 2.042968 8.679687 3.199218 13.546874 3.199218 16.125 0 29.355469-12.640624 30.3125-28.53125h33.398438c5.523438 0 10-4.476562 10-10 0-5.523437-4.476562-10-10-10h-33.339844v-19.882812h145.398438c5.480468 0 9.941406 4.457031 9.941406 9.941406 0 5.480469-4.460938 9.941406-9.941406 9.941406h-32.058594c-5.523438 0-10 4.476563-10 10 0 5.519532 4.476562 10 10 10h32.058594c16.511718 0 29.941406-13.433593 29.941406-29.941406 0-16.511718-13.433594-29.941406-29.941406-29.941406zm-216.519532-22.21875c5.722657 0 10.375 4.652344 10.375 10.375v83.570312c0 5.71875-4.652343 10.371094-10.375 10.371094-5.722656 0-10.375-4.652344-10.375-10.371094v-83.570312c0-5.722656 4.652344-10.375 10.375-10.375zm-75.683593 157c-8.925781 0-16.1875-7.261719-16.1875-16.1875v-32.007812c3.238281 1.179687 6.730469 1.828124 10.371093 1.828124 4.867188 0 9.464844-1.15625 13.546876-3.199218 4.976562 9.996094 15.300781 16.886718 27.203124 16.886718 7.832032 0 14.984376-2.980468 20.375-7.867187 3.703126 3.355469 8.242188 5.808594 13.257813 7.015625v86.34375c0 8.925781-7.261719 16.1875-16.1875 16.1875s-16.1875-7.261719-16.1875-16.1875v-16.621094c-.003906-19.957031-16.238281-36.191406-36.191406-36.191406zm24.558593-146.625c0-5.722656 4.65625-10.375 10.375-10.375 5.722657 0 10.375 4.652344 10.375 10.375v83.570312c0 5.71875-4.652343 10.371094-10.375 10.371094-5.71875 0-10.375-4.652344-10.375-10.371094zm-40.746093 13.6875c0-5.71875 4.652343-10.375 10.371093-10.375 5.722657 0 10.375 4.65625 10.375 10.375v56.195312c0 5.71875-4.652343 10.375-10.375 10.375-5.71875 0-10.371093-4.65625-10.371093-10.375zm164.191406 447.9375h-215.859375v-67.316406c0-5.523438-4.476562-10-10-10s-10 4.476562-10 10v67.242187c-15.613281-1.035156-28-14.058593-28-29.925781v-138.917969c0-1.289062.019531-2.574219.050781-3.859375 39.535157-36.46875 101.371094-35.527344 139.746094 2.847656 23.574219 23.578126 54.53125 35.359376 85.503906 35.359376 23.996094 0 48-7.085938 68.558594-21.25v125.820312c0 16.542969-13.460937 30-30 30zm-26.394531-314v10.164062c0 2.695313 1.089844 5.277344 3.019531 7.160157l.273437.265625c31.207032 30.433594 50.089844 71.984375 52.761719 115.34375-39.542969 36.3125-101.261719 35.316406-139.582031-3.003906-40.976562-40.980469-104.289062-46.332032-151.113281-16.078126 6.652343-36.5625 24.8125-70.601562 52.042969-96.429687 1.992187-1.890625 3.117187-4.511719 3.117187-7.257813v-10.164062h26.035156c6.128907 11.304688 18.101563 19 31.835938 19 8.929687 0 16.191406 7.261719 16.191406 16.1875v16.625c0 19.953125 16.230469 36.1875 36.1875 36.1875 19.953125 0 36.1875-16.234375 36.1875-36.1875v-51.8125zm5.195312-77.742188c0 5.71875-4.652344 10.375-10.371094 10.375-5.722656 0-10.375-4.65625-10.375-10.375v-56.195312c0-5.71875 4.652344-10.375 10.375-10.375 5.71875 0 10.371094 4.65625 10.371094 10.375zm0 0"/><path d="m58 374.679688c-2.628906 0-5.210938 1.070312-7.070312 2.929687-1.859376 1.859375-2.929688 4.441406-2.929688 7.070313 0 2.640624 1.070312 5.210937 2.929688 7.070312 1.859374 1.859375 4.441406 2.929688 7.070312 2.929688s5.210938-1.070313 7.070312-2.929688c1.859376-1.859375 2.929688-4.441406 2.929688-7.070312 0-2.628907-1.070312-5.210938-2.929688-7.070313-1.859374-1.859375-4.441406-2.929687-7.070312-2.929687zm0 0"/></svg>