<?xml version="1.0" encoding="UTF-8"?>
<svg width="500px" height="500px" viewBox="0 0 500 500" version="1.1" xmlns="http://www.w3.org/2000/svg" xmlns:xlink="http://www.w3.org/1999/xlink">
    <!-- Generator: Sketch 53 (72520) - https://sketchapp.com -->
    <title>Dairy-free</title>
    <desc>Created with Sketch.</desc>
    <g id="Dairy-free" stroke="none" stroke-width="1" fill="none" fill-rule="evenodd">
        <g id="dairy" transform="translate(52.000000, 173.000000)" fill="#000000">
            <g id="cheese">
                <path d="M179.379043,140.938431 C179.379043,126.840428 167.91135,115.369402 153.814243,115.369402 C139.720336,115.369402 128.252642,126.840428 128.252642,140.938431 C128.252642,155.039634 139.720336,166.510659 153.814243,166.510659 C167.91135,166.510659 179.379043,155.039634 179.379043,140.938431 Z M140.53603,140.938431 C140.53603,133.617453 146.492193,127.656359 153.814243,127.656359 C161.136294,127.656359 167.095656,133.614253 167.095656,140.938431 C167.095656,148.262609 161.136294,154.220503 153.814243,154.220503 C146.492193,154.220503 140.53603,148.262609 140.53603,140.938431 Z" id="Shape" fill-rule="nonzero"></path>
                <path d="M246.995254,222.950666 C261.089162,222.950666 272.556856,211.47964 272.556856,197.381637 C272.556856,183.280435 261.089162,171.809409 246.995254,171.809409 C232.898147,171.809409 221.430454,183.280435 221.430454,197.381637 C221.430454,211.47964 232.898147,222.950666 246.995254,222.950666 L246.995254,222.950666 Z M246.995254,184.099565 C254.314106,184.099565 260.273468,190.05746 260.273468,197.381637 C260.273468,204.702616 254.317305,210.66371 246.995254,210.66371 C239.670004,210.66371 233.713841,204.705815 233.713841,197.381637 C233.713841,190.05746 239.670004,184.099565 246.995254,184.099565 L246.995254,184.099565 Z" id="Shape" fill-rule="nonzero"></path>
                <path d="M415.472791,111.472134 L309.541368,67.7414472 C303.527626,65.2584581 296.583034,66.8551227 292.261457,71.7155093 L267.531543,99.5019495 L267.531543,91.1314604 C267.531543,90.4115217 267.393994,89.6723843 267.173277,89.0580365 C247.970888,35.4625885 214.549837,10.5687027 201.073298,2.355 C196.479823,-0.444762433 190.81475,-0.767934783 185.917388,1.49107296 L159.626461,13.6084441 C155.436034,15.54108 153.02414,19.8959099 153.622315,24.4427244 C154.342045,29.9206592 151.10806,33.6771397 147.838887,35.3665963 C146.271476,36.1793277 140.763144,38.4575342 135.673855,33.7443338 C131.688151,30.0582469 125.962301,29.1303261 121.080934,31.3797353 L3.56985953,85.5511343 C1.4298633,86.5366506 -2.84217094e-14,88.7220652 -2.84217094e-14,91.1314604 L-2.84217094e-14,189.507106 C-2.84217094e-14,197.237649 6.28563956,203.525116 14.0139376,203.525116 L129.992788,203.525116 C133.386714,203.525116 136.134482,200.773349 136.134482,197.381637 C136.134482,193.986725 133.386714,191.23496 129.992788,191.23496 L113.733294,191.23496 C112.361009,174.244402 98.1071614,160.83754 80.7760688,160.83754 C63.4417776,160.83754 49.1911285,174.244402 47.818844,191.23496 L14.0139376,191.23496 C13.0606959,191.23496 12.2833876,190.460625 12.2833876,189.507106 L12.2833876,97.2749387 L255.248155,97.2749387 L255.248155,113.305578 L185.898196,191.23496 L158.657225,191.23496 C155.263299,191.23496 152.515531,193.986725 152.515531,197.381637 C152.515531,200.773349 155.263299,203.525116 158.657225,203.525116 L174.964701,203.525116 L170.94701,208.039932 C167.892157,211.47004 167.732217,216.573607 170.563154,220.173301 C173.570025,224.000177 174.232176,228.975754 172.328891,233.484171 C168.970152,241.441895 159.719226,243.7425 153.123302,239.643648 C149.281545,237.256651 144.304214,237.97659 141.294145,241.358703 L133.213978,250.442731 C127.267411,257.123764 129.6953,267.702065 137.964194,271.116175 L240.984711,313.643764 C242.277026,314.184518 243.790057,314.27731 245.245511,313.80055 C245.251909,313.797351 245.255108,313.797351 245.261505,313.797351 L406.263449,260.34269 C414.046127,257.75731 419.272964,250.513125 419.272964,242.312221 L419.272964,204.350645 C419.272964,200.958933 416.525196,198.207167 413.13127,198.207167 C409.737345,198.207167 406.989577,200.958933 406.989577,204.350645 L406.989577,242.312221 C406.989577,245.207975 405.14387,247.767758 402.396101,248.679681 L377.880507,256.81979 C374.492979,246.667051 364.906179,239.326875 353.633612,239.326875 C339.539703,239.326875 328.07201,250.794701 328.07201,264.895904 C328.07201,267.660469 328.510245,270.36104 329.364324,272.927221 L263.174778,294.902955 L406.989577,133.294279 L406.989577,175.67788 C406.989577,179.072792 409.737345,181.821359 413.13127,181.821359 C416.525196,181.821359 419.272964,179.072792 419.272964,175.67788 L419.272964,117.151651 C419.272964,114.742255 417.795119,112.432051 415.472791,111.472134 Z M80.7760688,173.124497 C91.3289065,173.124497 100.074422,181.034225 101.395526,191.23496 L60.1566118,191.23496 C61.4777155,181.031026 70.2200326,173.124497 80.7760688,173.124497 Z M126.221404,42.5371879 C126.57647,42.3772011 127.008309,42.463594 127.331388,42.764368 C134.506293,49.4070039 144.774438,50.786087 153.484767,46.2808696 C161.827235,41.9644363 166.609438,33.4147624 165.944088,24.2283424 L191.057858,12.6485256 C192.235016,12.1077717 193.591307,12.1813657 194.682097,12.8469092 C206.344918,19.956705 234.315215,40.7485396 252.455603,84.9847826 L34.1439786,84.9847826 L126.221404,42.5371879 Z M353.633612,251.613832 C359.484214,251.613832 364.464744,255.418308 366.227282,260.688261 L341.027145,269.05555 C340.582512,267.724464 340.355397,266.322982 340.355397,264.895904 C340.355397,257.571725 346.311561,251.613832 353.633612,251.613832 Z M354.858752,99.7419293 C352.408471,106.390964 346.046061,111.008172 338.624847,111.008172 C326.034375,111.008172 317.666317,97.9084853 322.861167,86.5334511 L354.858752,99.7419293 Z M142.388133,258.611637 L148.875298,251.322656 C161.926397,257.741311 177.87241,251.937004 183.643042,238.264565 C186.998583,230.31964 186.214877,221.616379 181.615004,214.528981 L301.435611,79.8844162 C302.289691,78.9244969 303.668373,78.6109239 304.855128,79.0972826 L311.521425,81.8490489 C302.935849,101.517779 317.471191,123.295129 338.624847,123.295129 C351.157741,123.295129 361.9217,115.586984 366.217687,104.432731 L402.789554,119.529049 L241.637266,300.62087 L142.650435,259.75714 C142.186609,259.565156 142.05226,258.989205 142.388133,258.611637 L142.388133,258.611637 Z" id="Shape" fill-rule="nonzero"></path>
                <path d="M73.6363498,124.072663 C73.6363498,134.062214 81.7612989,142.192724 91.7479485,142.192724 C101.737798,142.192724 109.862747,134.062214 109.862747,124.072663 C109.862747,114.083112 101.737798,105.955801 91.7479485,105.955801 C81.7612989,105.952602 73.6363498,114.083112 73.6363498,124.072663 Z M97.579359,124.072663 C97.579359,127.28839 94.962742,129.902568 91.7479485,129.902568 C88.5331558,129.902568 85.9197374,127.28839 85.9197374,124.072663 C85.9197374,120.856936 88.5331558,118.242758 91.7479485,118.242758 C94.962742,118.242758 97.579359,120.856936 97.579359,124.072663 Z" id="Shape" fill-rule="nonzero"></path>
                <path d="M311.748539,190.329436 C321.738388,190.329436 329.863337,182.202127 329.863337,172.209375 C329.863337,162.219823 321.738388,154.092514 311.748539,154.092514 C301.761889,154.092514 293.63694,162.219823 293.63694,172.209375 C293.63694,182.202127 301.761889,190.329436 311.748539,190.329436 L311.748539,190.329436 Z M311.748539,166.379471 C314.963332,166.379471 317.579949,168.996848 317.579949,172.209375 C317.579949,175.425102 314.963332,178.04248 311.748539,178.04248 C308.536946,178.04248 305.920328,175.425102 305.920328,172.209375 C305.920328,168.996848 308.536946,166.379471 311.748539,166.379471 Z" id="Shape" fill-rule="nonzero"></path>
                <path d="M249.087268,259.28358 C249.087268,249.290829 240.959121,241.163519 230.972471,241.163519 C220.98582,241.163519 212.860871,249.290829 212.860871,259.28358 C212.860871,269.273132 220.98582,277.400442 230.972471,277.400442 C240.959121,277.400442 249.087268,269.273132 249.087268,259.28358 L249.087268,259.28358 Z M230.972471,265.113485 C227.757677,265.113485 225.144259,262.496107 225.144259,259.28358 C225.144259,256.067853 227.757677,253.450475 230.972471,253.450475 C234.187264,253.450475 236.800682,256.067853 236.800682,259.28358 C236.800682,262.499307 234.187264,265.113485 230.972471,265.113485 Z" id="Shape" fill-rule="nonzero"></path>
                <path d="M185.120888,34.2594907 C175.134238,34.2594907 167.009288,42.3868005 167.009288,52.3795512 C167.009288,62.3691033 175.134238,70.496413 185.120888,70.496413 C195.110737,70.496413 203.235686,62.3691033 203.235686,52.3795512 C203.235686,42.3868005 195.110737,34.2594907 185.120888,34.2594907 Z M185.120888,58.2094565 C181.906095,58.2094565 179.292676,55.5920792 179.292676,52.3795512 C179.292676,49.1638245 181.906095,46.5464472 185.120888,46.5464472 C188.33568,46.5464472 190.952298,49.1638245 190.952298,52.3795512 C190.952298,55.5920792 188.33568,58.2094565 185.120888,58.2094565 Z" id="Shape" fill-rule="nonzero"></path>
            </g>
        </g>
        <path d="M147.184812,124.184812 L222.184812,124.184812 C229.364514,124.184812 235.184812,130.00511 235.184812,137.184812 L235.184812,158.184812 C235.184812,165.364514 229.364514,171.184812 222.184812,171.184812 L147.184812,171.184812 L147.184812,246.184812 C147.184812,253.364514 141.364514,259.184812 134.184812,259.184812 L113.184812,259.184812 C106.00511,259.184812 100.184812,253.364514 100.184812,246.184812 L100.184812,171.184812 L25.1848122,171.184812 C18.0051105,171.184812 12.1848122,165.364514 12.1848122,158.184812 L12.1848122,137.184812 C12.1848122,130.00511 18.0051105,124.184812 25.1848122,124.184812 L100.184812,124.184812 L100.184812,49.1848122 C100.184812,42.0051105 106.00511,36.1848122 113.184812,36.1848122 L134.184812,36.1848122 C141.364514,36.1848122 147.184812,42.0051105 147.184812,49.1848122 L147.184812,124.184812 Z" id="Combined-Shape" fill="#FF5392" transform="translate(123.684812, 147.684812) rotate(-45.000000) translate(-123.684812, -147.684812) "></path>
    </g>
</svg>