<?xml version="1.0" encoding="UTF-8"?>
<svg width="500px" height="500px" viewBox="0 0 500 500" version="1.1" xmlns="http://www.w3.org/2000/svg" xmlns:xlink="http://www.w3.org/1999/xlink">
    <!-- Generator: Sketch 53 (72520) - https://sketchapp.com -->
    <title>Gluten-free</title>
    <desc>Created with Sketch.</desc>
    <g id="Gluten-free" stroke="none" stroke-width="1" fill="none" fill-rule="evenodd">
        <g id="bread" transform="translate(250.000000, 250.000000) scale(-1, 1) translate(-250.000000, -250.000000) translate(69.000000, 69.000000)" fill="#000000" fill-rule="nonzero">
            <path d="M130,68 C131.840234,68 133.644922,67.2507809 134.949218,65.9492184 C136.250781,64.6476559 137,62.8402342 137,61 C137,59.1515625 136.250781,57.3523434 134.949218,56.0507809 C133.644922,54.7410151 131.840234,54 130,54 C128.157031,54 126.352343,54.7410151 125.050781,56.0507809 C123.749218,57.3523434 123,59.1515625 123,61 C123,62.8402342 123.749218,64.6476559 125.050781,65.9492184 C126.352343,67.2507809 128.157031,68 130,68 Z" id="Path"></path>
            <path d="M21,68 C22.8402342,68 24.6449217,67.2507809 25.9492184,65.9492184 C27.2507809,64.6476559 28,62.8402342 28,61 C28,59.1515625 27.2507809,57.3523434 25.9492184,56.0507809 C24.6449217,54.7410151 22.8402342,54 21,54 C19.1570309,54 17.3523434,54.7410151 16.0507809,56.0507809 C14.7492184,57.3523434 14,59.1515625 14,61 C14,62.8402342 14.7492184,64.6476559 16.0507809,65.9492184 C17.3523434,67.2507809 19.1570309,68 21,68 Z" id="Path"></path>
            <path d="M335.810239,174.625671 C318.447991,165.718735 293.479057,161.203125 261.596711,161.203125 C253.655816,161.203125 246.029796,161.493118 238.90923,162.064819 C231.75552,161.490356 224.151595,161.203125 216.105743,161.203125 C187.004782,161.203125 163.665457,164.967514 146.612559,172.396866 C152.661449,155.436401 148.603997,140.149612 147.319644,136.128372 C146.695421,133.996231 145.093432,132.256272 142.963891,131.477432 C142.632445,131.355911 140.384135,130.560501 136.796233,129.861755 L136.796233,88.8926083 C136.796233,84.9873657 133.630923,81.8222958 129.725384,81.8222958 C125.819845,81.8222958 122.654535,84.9873657 122.654535,88.8926083 L122.654535,128.820542 C117.975622,129.030441 112.774682,129.825852 107.372111,131.629333 C108.336067,127.458954 108.894001,122.896392 108.894001,117.916794 C108.894001,89.5858305 90.7998095,74.6525577 82.0330624,69.0764009 L82.0330624,7.0703125 C82.0330624,3.16506923 78.8677525,5.68434189e-14 74.9622138,5.68434189e-14 C71.0566751,5.68434189e-14 67.8913651,3.16506923 67.8913651,7.0703125 L67.8913651,69.0349731 C59.4533015,74.3542782 41.0276648,89.2516479 41.0276648,117.916794 C41.0276648,122.907441 41.5911224,127.478287 42.5550784,131.65419 C37.3292794,129.900421 32.2885372,129.093964 27.7256309,128.845398 L27.7256309,88.8926083 C27.7256309,84.9873657 24.5603209,81.8222958 20.6547823,81.8222958 C16.7492429,81.8222958 13.5839336,84.9873657 13.5839336,88.8926083 L13.5839336,129.762329 C9.68944244,130.483169 7.23674182,131.350388 6.88872385,131.477432 C4.75918293,132.256272 3.15719379,133.996231 2.53020821,136.12561 C0.820498936,141.447678 -6.34978349,168.464004 15.0809645,191.784988 C10.3219518,192.538971 7.27817276,193.616089 6.88872385,193.756943 C4.75918293,194.535782 3.15719379,196.275742 2.53020821,198.405121 C0.820498936,203.724426 -6.34702091,230.72142 15.0561062,254.034119 C10.3109036,254.788101 7.27817276,255.862457 6.88596127,256.003311 C4.75918293,256.78215 3.15719379,258.52211 2.53020821,260.651489 C0.770782385,266.125458 -6.76961513,294.5448 16.9784932,318.291108 C30.7224552,332.034027 45.9800207,335.312332 57.4121462,335.312332 C61.4309295,335.312332 64.9635919,334.906342 67.8057414,334.406448 L67.8057414,354.929687 C67.8057414,358.834931 70.9710513,362 74.87659,362 C78.7821294,362 81.9474386,358.834931 81.9474386,354.929687 L81.9474386,334.389877 C84.8061608,334.898056 88.3719679,335.312332 92.4377058,335.312332 C103.869832,335.312332 119.130159,332.034027 132.871359,318.293869 C133.80217,317.360367 134.680502,316.421341 135.520165,315.476792 L135.520165,345.658188 C135.520165,354.670074 142.850647,362 151.863217,362 L325.839237,362 C334.849045,362 342.182289,354.670074 342.182289,345.658188 L342.182289,245.381272 C342.182289,243.296082 343.209771,241.290985 344.933291,240.020538 C356.10026,231.784729 361.999999,221.900101 361.999999,211.438248 C362.002761,196.364121 352.700176,183.289566 335.810239,174.625671 Z M2.33410247,136.99559 C2.40039167,136.578552 2.48877728,136.258179 2.53020821,136.128372 C2.44734706,136.412842 2.38105785,136.700073 2.33410247,136.99559 Z M2.33686505,199.266816 C2.40315425,198.852539 2.49153986,198.53769 2.53020821,198.407883 C2.44734706,198.68959 2.38381973,198.97406 2.33686505,199.266816 Z M2.33686505,261.513184 C2.40315425,261.098907 2.49153986,260.784058 2.53020821,260.654251 C2.44734706,260.935959 2.38381973,261.220429 2.33686505,261.513184 Z M135.520165,253.213852 L135.520165,254.15564 C135.282629,254.114212 135.036806,254.072784 134.790984,254.034119 C135.039569,253.763458 135.277105,253.487275 135.520165,253.213852 Z M122.869975,246.046875 C118.141345,250.775146 113.180703,253.865647 108.371973,255.829316 C107.148385,256.213211 105.913748,256.644058 104.670826,257.135666 C95.5312021,259.889221 87.3555334,258.908768 82.9776832,257.964218 C81.4475077,250.769623 79.7792294,233.160126 94.8821201,218.061142 C99.3814998,213.562104 104.380811,210.239609 109.827574,208.099182 C110.75286,207.800903 111.683672,207.475006 112.620007,207.115967 C113.760734,206.762451 114.91527,206.450363 116.091904,206.196274 C115.835033,207.914139 115.699693,209.662384 115.699693,211.44101 C115.699693,220.867172 120.511184,229.823822 129.631474,237.53212 C127.786424,240.539765 125.524306,243.395508 122.869975,246.046875 Z M66.8887407,272.314743 C71.2997355,271.613235 74.2247462,270.643829 74.9263073,270.395264 C75.6251058,270.643829 78.5501172,271.613235 82.9611113,272.314743 C79.6383646,275.935517 77.0006072,279.639145 74.9263073,283.334488 C72.8492455,279.639145 70.2114873,275.935517 66.8887407,272.314743 Z M66.8611206,210.040756 C71.2886866,209.336487 74.2219843,208.364319 74.9263073,208.115753 C75.6278677,208.364319 78.5611654,209.336487 82.9887321,210.040756 C79.6521754,213.667053 77.0061309,217.384491 74.9263073,221.08812 C72.8437211,217.384491 70.1976773,213.669815 66.8611206,210.040756 Z M134.749553,143.856003 C136.398497,151.57811 137.807143,168.834091 122.869975,183.767364 C107.717368,198.921585 90.1728246,197.236862 82.9693976,195.681946 C81.5055106,188.904389 79.9449524,173.067993 92.244362,158.634613 C93.2193662,157.662445 94.1998935,156.621231 95.1721352,155.499924 C110.236358,140.682647 127.568222,142.314895 134.749553,143.856003 L134.749553,143.856003 Z M74.9263073,81.2975464 C81.5552279,85.5894474 94.7523036,96.7942354 94.7523036,117.916794 C94.7523036,130.585357 90.0015772,139.6801 84.8365436,145.827957 C83.7621062,146.905075 82.7539573,147.99324 81.8010502,149.086929 C79.2433913,151.57811 76.7879288,153.37883 74.9705001,154.549851 C72.9127728,153.21312 70.0236679,151.064407 67.0876083,148.004288 C66.7451141,147.63144 66.4026199,147.258591 66.0463156,146.888504 C60.5277388,140.732361 55.1693621,131.30896 55.1693621,117.916794 C55.1693621,96.5235747 68.7199802,85.3105009 74.9263073,81.2975464 Z M15.100299,143.858765 C22.3562052,142.303848 39.853793,140.666077 54.9704945,155.77887 C55.0726901,155.883819 55.1665995,155.986008 55.2660333,156.090957 C55.8377779,156.728943 56.4095225,157.33931 56.981267,157.927582 C65.695535,167.754211 67.8444105,178.312729 67.8609824,186.269592 L67.8609824,186.294449 C67.8692687,190.174835 67.3693378,193.431045 66.8859789,195.681946 C62.4252675,196.640305 54.0507312,197.640091 44.7343359,194.718064 C43.8145734,194.36731 42.9003346,194.044174 41.9943821,193.751419 C37.0254535,191.798798 31.8769919,188.66687 26.979877,183.767364 C12.0454711,168.834091 13.4513552,151.580872 15.100299,143.858765 L15.100299,143.858765 Z M15.0975365,206.14656 C19.6024406,205.196487 28.1344136,204.202225 37.5751017,207.245773 C38.2462801,207.4971 38.9174577,207.737381 39.5831124,207.958328 C44.6735712,209.891617 49.960135,213.048401 54.9677319,218.05838 C65.3723753,228.459473 67.838886,239.987397 67.8609824,248.524246 L67.8609824,248.571197 C67.8665069,252.44606 67.3720997,255.699509 66.8859789,257.950409 C62.4611747,258.889434 54.1004485,259.875412 44.8089114,256.99205 C43.8090489,256.608154 42.8174734,256.2574 41.8314209,255.942551 C36.9066852,253.992691 31.8162271,250.882858 26.979877,246.046875 C12.0509956,231.119126 13.4513552,213.874191 15.0975365,206.14656 L15.0975365,206.14656 Z M66.8859789,320.196777 C59.6908382,321.724075 42.0800058,323.392227 26.979877,308.293243 C12.0509956,293.365494 13.4513552,276.12056 15.100299,268.392929 C19.5333895,267.456665 27.8720194,266.484497 37.1359355,269.359573 C38.1302736,269.740708 39.1190879,270.088699 40.099616,270.400787 C45.0298755,272.353409 50.1286199,275.463242 54.9704945,280.304749 C65.3723753,290.705841 67.8416479,302.233765 67.8637443,310.770615 L67.8637443,310.817566 C67.8637443,310.925278 67.8609824,311.030227 67.8582205,311.137939 C67.8278378,311.405838 67.808504,311.67926 67.808504,311.958206 L67.808504,313.107132 C67.6648767,315.976685 67.2726659,318.407104 66.8859789,320.196777 L66.8859789,320.196777 Z M122.869975,308.293243 C107.722892,323.44194 90.1893966,321.765503 82.9776832,320.210586 C81.4475077,313.015991 79.7792294,295.406494 94.8821201,280.304749 C99.6190365,275.570953 104.587964,272.480454 109.402218,270.514023 C110.61752,270.13565 111.846633,269.704804 113.081269,269.21872 C122.201559,266.470688 130.36618,267.442856 134.749553,268.381882 C135.045093,269.768326 135.332346,271.466858 135.520165,273.402908 L135.520165,282.110992 C134.738505,290.054047 131.598054,299.568588 122.869975,308.293243 L122.869975,308.293243 Z M149.661862,345.658188 L149.661862,245.381272 C149.661862,238.827423 146.485505,232.569092 141.163034,228.641754 C135.998,224.830414 129.84139,218.754364 129.84139,211.438248 C129.84139,189.175049 162.897607,175.34375 216.105743,175.34375 C269.316641,175.34375 302.370096,189.175049 302.370096,211.438248 C302.370096,218.754364 296.213486,224.830414 291.048453,228.641754 C285.728744,232.569092 282.552386,238.824661 282.552386,245.381272 L282.552386,345.658188 C282.552386,346.870636 281.563572,347.859375 280.34827,347.859375 L151.863217,347.859375 C150.650677,347.859375 149.661862,346.870636 149.661862,345.658188 Z M336.536658,228.641754 C331.216949,232.569092 328.040591,238.827423 328.040591,245.381272 L328.040591,345.658188 C328.040591,346.870636 327.051777,347.859375 325.839237,347.859375 L296.539408,347.859375 C296.638842,347.138535 296.694083,346.403885 296.694083,345.658188 L296.694083,245.381272 C296.694083,243.296082 297.721566,241.293747 299.445086,240.020538 C310.612054,231.781967 316.511793,221.900101 316.511793,211.438248 C316.511793,197.96875 309.081879,186.10112 295.45116,177.544937 C328.454899,182.273208 347.861064,194.381119 347.861064,211.438248 C347.861064,218.754364 341.704453,224.830414 336.536658,228.641754 L336.536658,228.641754 Z" id="Shape"></path>
            <path d="M183.904885,214.09704 C181.108603,211.300987 176.575829,211.300987 173.779546,214.09704 L171.095115,216.78125 C168.301628,219.577303 168.301628,224.106907 171.095115,226.90296 C172.493256,228.300987 174.324821,229 176.156387,229 C177.987951,229 179.822313,228.300987 181.220454,226.90296 L183.904885,224.21875 C186.698372,221.422697 186.698372,216.893092 183.904885,214.09704 Z" id="Path"></path>
            <path d="M228.843533,228.913939 C230.234353,230.304647 232.05911,231 233.881085,231 C235.70306,231 237.525035,230.304647 238.915855,228.913939 C241.694715,226.132526 241.694715,221.626636 238.915855,218.845223 L236.156467,216.08606 C233.374826,213.304647 228.865786,213.304647 226.084145,216.08606 C223.305285,218.864692 223.305285,223.373363 226.084145,226.154777 L228.843533,228.913939 Z" id="Path"></path>
            <path d="M189.637685,255.121307 L186.121557,258.639849 C183.292814,261.46543 183.292814,266.050283 186.121557,268.878693 C187.535929,270.292897 189.388756,271 191.241583,271 C193.094409,271 194.947236,270.292897 196.361608,268.878693 L199.880564,265.36015 C202.706479,262.534569 202.706479,257.949717 199.880564,255.121307 C197.051821,252.292898 192.466428,252.292898 189.637685,255.121307 Z" id="Path"></path>
            <path d="M250.754567,263.982666 L254.982741,259.754333 C257.67242,257.064554 257.67242,252.707113 254.982741,250.017334 C252.293063,247.327555 247.933094,247.327555 245.243416,250.017334 L241.015242,254.245666 C238.328253,256.932755 238.328253,261.292887 241.015242,263.982666 C242.360081,265.327555 244.12182,266 245.886249,266 C247.647988,266 249.409728,265.327555 250.754567,263.982666 L250.754567,263.982666 Z" id="Path"></path>
            <path d="M168.829427,301.08849 L165.086563,304.831064 C162.304479,307.615718 162.304479,312.126856 165.086563,314.91151 C166.478998,316.303837 168.305872,317 170.129961,317 C171.95405,317 173.778139,316.303837 175.170573,314.91151 L178.913437,311.168935 C181.695521,308.387067 181.695521,303.873144 178.913437,301.08849 C176.128568,298.303837 171.614296,298.303837 168.829427,301.08849 Z" id="Path"></path>
            <path d="M222.707712,287.109375 L219.10743,290.709375 C216.297523,293.521875 216.297523,298.078125 219.10743,300.890625 C220.51379,302.296875 222.358934,303 224.201266,303 C226.043598,303 227.885928,302.296875 229.292288,300.890625 L232.89257,297.290625 C235.702477,294.480938 235.702477,289.921875 232.89257,287.109375 C230.07985,284.296875 225.520431,284.296875 222.707712,287.109375 Z" id="Path"></path>
            <path d="M250.986002,318.061632 L246.059719,322.987558 C243.313427,325.736401 243.313427,330.189525 246.059719,332.938368 C247.43424,334.31279 249.237611,335 251.038234,335 C252.838856,335 254.639478,334.31279 256.013998,332.938368 L260.940281,328.012442 C263.686573,325.266348 263.686573,320.810475 260.940281,318.061632 C258.191239,315.312789 253.735043,315.312789 250.986002,318.061632 Z" id="Path"></path>
        </g>
        <path d="M147.184812,124.184812 L222.184812,124.184812 C229.364514,124.184812 235.184812,130.00511 235.184812,137.184812 L235.184812,158.184812 C235.184812,165.364514 229.364514,171.184812 222.184812,171.184812 L147.184812,171.184812 L147.184812,246.184812 C147.184812,253.364514 141.364514,259.184812 134.184812,259.184812 L113.184812,259.184812 C106.00511,259.184812 100.184812,253.364514 100.184812,246.184812 L100.184812,171.184812 L25.1848122,171.184812 C18.0051105,171.184812 12.1848122,165.364514 12.1848122,158.184812 L12.1848122,137.184812 C12.1848122,130.00511 18.0051105,124.184812 25.1848122,124.184812 L100.184812,124.184812 L100.184812,49.1848122 C100.184812,42.0051105 106.00511,36.1848122 113.184812,36.1848122 L134.184812,36.1848122 C141.364514,36.1848122 147.184812,42.0051105 147.184812,49.1848122 L147.184812,124.184812 Z" id="Combined-Shape" fill="#FF5392" transform="translate(123.684812, 147.684812) rotate(-45.000000) translate(-123.684812, -147.684812) "></path>
    </g>
</svg>