<?xml version="1.0" encoding="UTF-8"?>
<svg width="500px" height="500px" viewBox="0 0 500 500" version="1.1" xmlns="http://www.w3.org/2000/svg" xmlns:xlink="http://www.w3.org/1999/xlink">
    <!-- Generator: Sketch 53 (72520) - https://sketchapp.com -->
    <title>Pescetarian</title>
    <desc>Created with Sketch.</desc>
    <g id="Pescetarian" stroke="none" stroke-width="1" fill="none" fill-rule="evenodd">
        <g id="chicken" transform="translate(30.000000, 127.000000)" fill="#000000" fill-rule="nonzero">
            <path d="M183.020001,220.083807 C173.15402,231.269931 154.026373,240.287502 138.652171,240.287502 L120.432452,240.287502 C120.318367,240.283471 120.204857,240.27656 120.090195,240.278864 C102.005305,240.100342 87.3458667,225.347564 87.3458667,207.231097 C87.3458667,204.050537 84.7656857,201.472342 81.5839619,201.472342 L64.2809619,201.472342 C52.4045238,201.472342 42.7418095,191.814911 42.7418095,179.944965 C42.7418095,176.764405 40.1616286,174.18621 36.9799048,174.18621 C23.1951238,174.18621 11.9801524,162.977946 11.9801524,149.200125 L11.9801524,138.434708 L48.0681143,138.434708 C71.5478762,138.434708 94.7879429,134.799206 117.144133,127.628405 C120.174319,126.656327 121.841814,123.414148 120.869781,120.385619 C119.897748,117.357665 116.654371,115.68993 113.623033,116.662008 C92.4071238,123.467128 70.3511286,126.917198 48.0686905,126.917198 L6.22055238,126.917198 C3.03882857,126.917198 0.458647619,129.495393 0.458647619,132.675953 L0.458647619,149.201276 C0.458647619,167.522179 14.0325429,182.73393 31.6570571,185.317883 C34.2314762,200.99379 47.8814286,212.991004 64.2832667,212.991004 L76.1948524,212.991004 C78.8441762,233.420763 95.3889095,249.552187 116.013648,251.585603 L124.653624,277.320903 C118.902667,278.162257 114.467152,283.111907 114.467152,289.09007 C114.467152,292.27063 117.047333,294.848825 120.229057,294.848825 C123.410781,294.848825 125.990962,292.27063 125.990962,289.09007 C125.990962,288.874117 126.1667,288.698475 126.382771,288.698475 L132.573938,288.698475 C132.588343,288.698475 132.602171,288.700202 132.616576,288.700202 C132.630405,288.700202 132.64481,288.698475 132.658638,288.698475 L138.527714,288.698475 C138.743786,288.698475 138.9201,288.874117 138.9201,289.09007 C138.9201,292.27063 141.500281,294.848825 144.682005,294.848825 C147.863729,294.848825 150.44391,292.27063 150.44391,289.09007 C150.44391,288.958195 150.428352,288.829774 150.424319,288.698475 L152.249114,288.698475 C152.263519,288.698475 152.277348,288.700202 152.291752,288.700202 C152.305581,288.700202 152.319986,288.698475 152.333814,288.698475 L158.203467,288.698475 C158.419538,288.698475 158.595276,288.874117 158.595276,289.09007 C158.595276,292.27063 161.175457,294.848825 164.357181,294.848825 C167.538905,294.848825 170.119086,292.27063 170.119086,289.09007 C170.119086,282.523362 164.773767,277.180965 158.203467,277.180965 L156.435714,277.180965 L147.701819,251.164638 C157.487262,249.784265 171.515929,243.989804 179.7664,238.325492 L183.020001,220.083807 Z M228.938106,173.05846 C231.639054,165.657453 233.081148,157.736506 233.081148,149.605541 C233.081148,122.608498 228.106319,96.1660233 218.295524,71.012358 L217.351724,68.5931051 C223.024895,65.753463 226.928586,59.8858677 226.928586,53.1245136 L226.928586,52.3499611 L235.778295,52.3499611 C238.531333,52.3499611 240.900052,50.4035019 241.431876,47.7037977 C241.9637,45.0035175 240.509971,42.304965 237.962633,41.2620545 L228.230776,37.277572 L233.689029,26.1067393 C235.142181,23.1329183 234.96241,19.6822724 233.208486,16.8754553 C231.455138,14.0686381 228.43129,12.3934163 225.1205,12.3934163 L221.340114,12.3934163 L218.012614,5.42532296 C216.462086,2.17796109 213.2625,0.100202335 209.663614,0.00287937743 C206.076829,-0.0875330739 202.759124,1.80767315 201.034586,4.96692607 L198.201457,10.1584436 L190.19241,5.42071595 C187.251533,3.68099611 183.581776,3.65105058 180.61209,5.34297276 C177.643557,7.03489494 175.799171,10.2068171 175.799171,13.6223346 L175.799171,17.4352062 C172.759767,18.0012918 170.1502,20.0162802 168.853195,22.926179 C167.273281,26.4718444 167.984876,30.5778366 170.666467,33.3858054 L179.142805,42.2600467 C179.069629,42.5030661 178.9953,42.7455097 178.929038,42.9919844 L173.460414,63.2927471 C169.943348,76.3489961 162.75249,88.0145058 152.664548,97.0269572 C150.292371,99.1467549 150.0884,102.78744 152.209357,105.158319 C154.330314,107.529774 157.971838,107.733634 160.345167,105.613837 C172.104638,95.1069883 180.487633,81.5082646 184.587805,66.2867237 L190.056429,45.986537 C191.72911,39.7768716 197.390757,35.4399533 203.825076,35.4399533 C208.739981,35.4399533 213.393295,38.0388794 215.969443,42.2231907 L216.542176,43.1532296 C215.826548,44.1126381 215.403048,45.301821 215.403048,46.5906304 L215.403048,53.1239377 C215.403048,56.3056498 212.813071,58.894786 209.629043,58.894786 C207.725886,58.894786 205.945457,59.8340389 204.872014,61.4038755 C203.798571,62.9737121 203.569248,64.9725759 204.2601,66.7445447 L207.55591,75.1943658 C216.845252,99.0091206 221.555033,124.044156 221.555033,149.604389 C221.555033,157.697664 219.837157,165.540875 216.66269,172.69219 L228.938106,173.05846 Z M141.571152,277.180389 C141.132671,277.180389 140.706867,277.233946 140.296619,277.326661 C139.718124,277.239704 139.129833,277.180389 138.527138,277.180389 L136.761114,277.180389 L128.242714,251.805588 L135.762576,251.805588 L144.280976,277.180389 L141.571152,277.180389 Z M203.826229,23.9224436 C196.613476,23.9224436 189.938886,26.9388794 185.185314,31.9052296 L181.501152,28.0485914 C182.574595,27.5942257 183.565643,26.9394553 184.429929,26.1009805 C186.295057,24.290428 187.322981,21.8619611 187.322981,19.263035 L187.322981,17.1069572 L194.104167,21.11793 C196.31789,22.4274708 199.010429,22.7868171 201.490929,22.1049805 C203.971429,21.4225681 206.100452,19.7369805 207.332924,17.4795486 L209.28909,13.8952996 L211.480919,18.4856031 C213.055071,21.7807626 216.433852,23.9103502 220.087476,23.9103502 L221.938776,23.9103502 L219.370119,29.1669416 C214.943248,25.8326226 209.48269,23.9224436 203.826229,23.9224436 Z" id="XMLID_1334_"></path>
            <path d="M68.513081,154.534459 C66.6416143,154.534459 64.8871143,155.442615 63.8073333,156.969837 C62.7275524,158.497058 62.4567429,160.453307 63.0819095,162.216062 C69.5145,180.361323 86.3542429,192.786988 105.444586,193.735455 C107.977519,203.435502 116.818586,210.614366 127.306405,210.614366 C144.231424,210.614366 159.563276,200.60565 166.365781,185.116327 L166.521352,184.763891 C168.907933,179.328778 170.117933,173.563689 170.117933,167.629292 L170.117933,139.977479 C170.117933,138.005105 169.108448,136.170366 167.441529,135.11421 C165.775762,134.05863 163.68419,133.927331 161.899152,134.768109 C134.45059,147.698817 103.903276,154.533883 73.5582048,154.533883 L68.513081,154.533883 L68.513081,154.534459 Z M158.594124,148.849992 L158.594124,167.629868 C158.594124,171.961027 157.710824,176.168949 155.969,180.13558 L155.814005,180.488016 C150.848971,191.793027 139.658776,199.097432 127.305829,199.097432 C121.202819,199.097432 116.238362,194.135113 116.238362,188.036016 C116.238362,184.855455 113.658181,182.277261 110.476457,182.277261 L107.796595,182.277261 C95.514519,182.277261 84.2632476,175.987549 77.7304,166.011082 C105.387543,165.472062 133.086171,159.584887 158.594124,148.849992 Z" id="XMLID_1360_"></path>
            <path d="M180.937638,179.314957 C178.149452,180.848514 177.133052,184.350412 178.668024,187.137074 C179.717267,189.043222 181.687838,190.120685 183.721214,190.120685 C184.660405,190.120685 185.612848,189.890911 186.494419,189.406023 C200.963138,181.448 209.983976,166.250646 210.034105,149.744903 C210.0439,146.564342 207.472362,143.978086 204.290062,143.968296 C201.131386,143.963113 198.519514,146.528638 198.510295,149.709198 C198.47169,162.03063 191.738329,173.374802 180.937638,179.314957 Z" id="XMLID_1361_"></path>
            <path d="M202.212319,120.97186 C199.051914,121.338693 196.786333,124.196763 197.153367,127.356016 C197.155671,127.37214 197.163162,127.436062 197.165467,127.452187 L197.180448,127.577728 C197.536533,130.498568 200.021643,132.640825 202.8928,132.640825 C203.125005,132.640825 203.360667,132.627004 203.596905,132.59821 C206.755581,132.213525 209.005029,129.34221 208.620133,126.185261 L208.602848,126.045899 L208.601119,126.028623 C208.232933,122.868794 205.374452,120.604451 202.212319,120.97186 Z" id="XMLID_1363_"></path>
            <path d="M136.98871,119.568451 C138.50409,119.568451 139.990662,118.952265 141.0618,117.881136 C142.133514,116.804249 142.750614,115.324249 142.750614,113.803938 C142.750614,112.289385 142.13409,110.809385 141.0618,109.732498 C139.990662,108.66137 138.50409,108.045183 136.98871,108.045183 C135.473329,108.045183 133.986757,108.66137 132.915043,109.732498 C131.843329,110.809385 131.226805,112.289385 131.226805,113.803938 C131.226805,115.324249 131.842752,116.804249 132.915043,117.881136 C133.986757,118.95284 135.473329,119.568451 136.98871,119.568451 Z" id="XMLID_1368_"></path>
        </g>
        <g id="beef" transform="translate(182.000000, 235.000000)" fill="#000000">
            <g id="XMLID_23_">
                <g fill-rule="nonzero">
                    <path d="M290.404218,69.3070686 L277.380794,57.3393235 L268.515767,43.8184902 C267.019642,41.5365784 265.13365,39.5606569 262.980451,37.9555098 L263.460732,37.052 C269.55407,25.5938529 267.626039,11.6039118 258.663689,2.23852941 C257.460685,0.981598039 255.760125,0.337803922 254.026739,0.482990196 C252.296809,0.630490196 250.725245,1.55366667 249.749136,2.99569608 L230.611642,31.2821471 L197.042132,19.8841569 C195.398008,19.3259706 193.589759,19.5423039 192.122428,20.4741569 C190.654521,21.4054314 189.683595,22.9521569 189.479735,24.6839804 C188.030833,36.9744902 193.903611,48.9543824 204.089121,55.4328137 C202.294117,56.1616373 200.36263,56.5538137 198.409261,56.5538137 L82.5713307,56.5538137 C68.6760311,56.5538137 55.5011518,61.4236275 45.0040934,70.3517157 C44.5347549,70.2279314 44.0452607,70.155049 43.5373385,70.155049 L36.6694475,70.155049 C21.3275486,70.155049 8.84602335,82.6919706 8.84602335,98.1019608 L8.84602335,150.436118 C3.64874708,152.885196 0,158.543412 0,165.118441 C0,168.845275 1.17824125,174.633637 2.93235798,179.520225 C5.79964202,187.510098 9.72653696,191.560853 14.6047782,191.560853 C19.4830195,191.560853 23.4104903,187.50952 26.2771984,179.520225 C28.0307393,174.633637 29.2089805,168.845275 29.2089805,165.118441 C29.2089805,158.543412 25.5608093,152.885775 20.3635331,150.435539 L20.3635331,98.1013824 C20.3635331,89.7667647 26.5945058,82.8718627 34.6222101,81.8567157 C27.3575409,92.4495294 23.7047626,105.256578 24.4280623,118.297314 C25.3557977,135.035382 33.4036576,150.588245 46.5077043,160.969931 C51.7568093,165.128275 54.7813074,171.3655 54.8054942,178.079931 L54.9920778,229.773186 C55.0035953,232.959765 57.5783346,235.536676 60.7508327,235.536676 L78.560358,235.536676 C78.8926381,235.536676 79.2162802,235.501971 79.5330117,235.448176 C79.8497432,235.502549 80.1733852,235.536676 80.5056654,235.536676 L98.3151907,235.536676 C101.495751,235.536676 104.073946,232.946461 104.073946,229.752363 L104.073946,209.857216 C104.073946,203.364324 105.981821,197.084873 109.590257,191.696784 C112.178241,187.833441 114.108576,183.64502 115.368016,179.208451 L174.830039,179.208451 C176.089479,183.644441 178.019237,187.833441 180.607798,191.696784 C184.216233,197.084294 186.124109,203.364324 186.124109,209.857216 L186.124109,229.752941 C186.124109,232.947039 188.702304,235.537255 191.882864,235.537255 L208.650054,235.537255 C209.124,235.537255 209.582397,235.473049 210.023518,235.364882 C210.464638,235.473627 210.923035,235.537255 211.396981,235.537255 L229.74207,235.537255 C232.92263,235.537255 235.500825,232.947039 235.500825,229.752941 L235.500825,177.886157 L240.993525,164.151882 C241.181261,163.682196 241.365541,163.21251 241.546942,162.741088 C242.691206,159.760431 241.212934,156.412471 238.245447,155.263127 C235.276809,154.111471 231.944794,155.598618 230.800529,158.578696 C230.638708,159.000373 230.473432,159.420892 230.305852,159.840255 L224.398521,174.611657 C224.124405,175.297676 223.983315,176.028814 223.983315,176.768049 L223.983315,223.968627 L217.155735,223.968627 L217.155735,209.857794 C217.155735,201.056382 214.570054,192.543608 209.677992,185.239176 C207.296171,181.683559 205.667595,177.755431 204.819907,173.561804 C204.821058,173.515529 204.826817,173.47099 204.826817,173.424716 C204.826817,172.605078 204.655206,171.827088 204.34884,171.120245 L200.359175,149.931725 C199.768327,146.792578 196.756498,144.732784 193.630646,145.322784 C190.50537,145.916255 188.451222,148.942608 189.042646,152.081755 L191.972125,167.639824 L97.985214,167.639824 L100.914693,152.081755 C101.505541,148.942608 99.451393,145.916833 96.3266926,145.322784 C93.203144,144.731049 90.1890117,146.792 89.5981634,149.931725 L85.2312996,173.125088 C84.410677,177.483569 82.7446693,181.559196 80.2787704,185.239176 C75.387284,192.543029 72.8016031,201.055804 72.8016031,209.857216 L72.8016031,223.968627 L66.488856,223.968627 L66.3230039,178.038863 C66.2861479,167.775755 61.6635953,158.243784 53.6404981,151.887402 C43.1284669,143.559147 36.6723268,131.081225 35.9277198,117.654098 C35.1836887,104.226971 40.2202957,91.1064118 49.7470039,81.6577353 C58.5469572,72.9292059 70.2044047,68.1224412 82.5719066,68.1224412 L198.409837,68.1224412 C205.467767,68.1224412 212.368482,65.2383824 217.342895,60.2083431 C217.565183,59.9839118 217.758677,59.7427059 217.936047,59.493402 C225.824389,57.1415 232.262101,51.3508235 235.489307,43.7999804 L250.026132,44.9273431 C253.60635,45.2044118 256.922817,47.1687647 258.89807,50.1812353 L268.15642,64.3024804 C268.417868,64.7010196 268.727689,65.0660098 269.078973,65.3887745 L282.630475,77.8418235 C283.076202,78.2519314 283.331891,78.8349902 283.331891,79.4417647 L283.331891,86.2331275 C283.331891,87.4281667 282.363844,88.4005098 281.174086,88.4005098 L275.236233,88.4005098 C274.519844,88.4005098 273.80979,88.5347059 273.142926,88.7961569 L265.205058,91.9075392 C261.839066,93.2269412 258.299735,93.8961863 254.685541,93.8961863 L243.269385,93.8961863 C240.088825,93.8961863 237.51063,96.486402 237.51063,99.6805 L237.51063,114.818627 C237.51063,118.012725 240.088825,120.602941 243.269385,120.602941 C246.449946,120.602941 249.02814,118.012725 249.02814,114.818627 L249.02814,105.464235 L254.685541,105.464235 C259.738272,105.464235 264.686195,104.528912 269.392249,102.684294 L276.320031,99.9691373 L281.174086,99.9691373 C288.714599,99.9691373 294.849401,93.8071078 294.849401,86.2331275 L294.849401,79.4417647 C294.848249,75.5969314 293.228887,71.9030686 290.404218,69.3070686 Z M14.6047782,177.729402 C13.0527938,174.177833 11.5175097,168.333363 11.5175097,165.118441 C11.5175097,162.768275 12.9600778,160.707324 14.6047782,160.707324 C16.2489027,160.707324 17.6914708,162.768275 17.6914708,165.118441 C17.6914708,168.333363 16.1567626,174.177833 14.6047782,177.729402 Z M205.635922,223.968627 L197.639315,223.968627 L197.639315,209.857794 C197.639315,201.055804 195.053634,192.543029 190.161572,185.239176 C188.883128,183.330931 187.824669,181.31452 186.982739,179.209029 L194.341852,179.209029 C195.601292,183.645598 197.531626,187.83402 200.119611,191.697363 C203.728623,197.084873 205.635922,203.364902 205.635922,209.857794 L205.635922,223.968627 Z M89.8342724,191.69852 C92.4228327,187.835176 94.3525914,183.646176 95.612607,179.209608 L103.212436,179.209608 C102.370506,181.315098 101.312047,183.33151 100.033603,185.240333 C95.1415409,192.543608 92.5558599,201.056382 92.5558599,209.858373 L92.5558599,223.968627 L84.318537,223.968627 L84.318537,209.857794 C84.318537,203.36548 86.2258366,197.085451 89.8342724,191.69852 Z M215.446537,48.1538333 L213.18277,47.1976863 C207.286381,44.7063824 203.031237,39.5768529 201.452187,33.5929804 L223.907875,41.2178627 C221.985603,44.4212157 218.995658,46.8934314 215.446537,48.1538333 Z M243.498584,32.8173039 L254.379751,16.7340196 C256.099891,21.5089706 255.801588,26.9016863 253.302864,31.6002843 L252.271471,33.5397647 C251.82056,33.4772941 251.367346,33.4269706 250.911829,33.3916863 L243.498584,32.8173039 Z" id="XMLID_48_"></path>
                    <path d="M251.375409,70.9671667 C252.446537,69.8918627 253.062724,68.3995098 253.062724,66.8782353 C253.062724,65.3569608 252.446537,63.8646078 251.375409,62.7887255 C250.30428,61.7128431 248.818521,61.0939216 247.303969,61.0939216 C245.789416,61.0939216 244.303658,61.7122647 243.232529,62.7887255 C242.155642,63.8646078 241.545214,65.3569608 241.545214,66.8782353 C241.545214,68.3995098 242.155642,69.8918627 243.232529,70.9671667 C244.303658,72.043049 245.783658,72.662549 247.303969,72.662549 C248.818521,72.662549 250.30428,72.0436275 251.375409,70.9671667 Z" id="XMLID_53_"></path>
                    <path d="M140.168093,81.1018627 C139.096965,82.1835294 138.480778,83.6695196 138.480778,85.1971569 C138.480778,86.7184314 139.096965,88.205 140.168093,89.2860882 C141.239222,90.3619706 142.724981,90.9756863 144.239533,90.9756863 C145.754086,90.9756863 147.239844,90.3619706 148.310973,89.2860882 C149.382101,88.205 149.998288,86.7184314 149.998288,85.1971569 C149.998288,83.6695196 149.382101,82.1771667 148.310973,81.1018627 C147.239844,80.0259804 145.754086,79.4128431 144.239533,79.4128431 C142.724981,79.4128431 141.239222,80.025402 140.168093,81.1018627 Z" id="XMLID_54_"></path>
                    <path d="M78.3098521,79.409951 C75.1292918,79.409951 72.5510973,82.0001667 72.5510973,85.1942647 C72.5510973,88.3883627 75.1292918,90.9785784 78.3098521,90.9785784 L121.207393,90.9785784 C124.387953,90.9785784 126.966148,88.3883627 126.966148,85.1942647 C126.966148,82.0001667 124.387953,79.409951 121.207393,79.409951 L78.3098521,79.409951 Z" id="XMLID_55_"></path>
                    <path d="M242.103813,132.362451 C240.583502,132.362451 239.097743,132.980794 238.026615,134.057255 C236.955486,135.133137 236.3393,136.62549 236.3393,138.146765 C236.3393,139.668039 236.955486,141.160392 238.026615,142.235696 C239.097743,143.317363 240.583502,143.931078 242.103813,143.931078 C243.618366,143.931078 245.098366,143.317363 246.175253,142.235696 C247.246381,141.160392 247.862568,139.668039 247.862568,138.146765 C247.862568,136.62549 247.246381,135.133137 246.175253,134.057255 C245.098366,132.980794 243.618366,132.362451 242.103813,132.362451 Z" id="XMLID_56_"></path>
                </g>
            </g>
        </g>
        <path d="M147.184812,124.184812 L222.184812,124.184812 C229.364514,124.184812 235.184812,130.00511 235.184812,137.184812 L235.184812,158.184812 C235.184812,165.364514 229.364514,171.184812 222.184812,171.184812 L147.184812,171.184812 L147.184812,246.184812 C147.184812,253.364514 141.364514,259.184812 134.184812,259.184812 L113.184812,259.184812 C106.00511,259.184812 100.184812,253.364514 100.184812,246.184812 L100.184812,171.184812 L25.1848122,171.184812 C18.0051105,171.184812 12.1848122,165.364514 12.1848122,158.184812 L12.1848122,137.184812 C12.1848122,130.00511 18.0051105,124.184812 25.1848122,124.184812 L100.184812,124.184812 L100.184812,49.1848122 C100.184812,42.0051105 106.00511,36.1848122 113.184812,36.1848122 L134.184812,36.1848122 C141.364514,36.1848122 147.184812,42.0051105 147.184812,49.1848122 L147.184812,124.184812 Z" id="Combined-Shape" fill="#FF5392" transform="translate(123.684812, 147.684812) rotate(-45.000000) translate(-123.684812, -147.684812) "></path>
    </g>
</svg>