<?xml version="1.0" encoding="UTF-8"?>
<svg width="679px" height="500px" viewBox="0 0 679 500" version="1.1" xmlns="http://www.w3.org/2000/svg" xmlns:xlink="http://www.w3.org/1999/xlink">
    <!-- Generator: Sketch 53 (72520) - https://sketchapp.com -->
    <title>Vegan</title>
    <desc>Created with Sketch.</desc>
    <g id="Vegan" stroke="none" stroke-width="1" fill="none" fill-rule="evenodd">
        <g id="Group" transform="translate(227.000000, 52.000000)" fill="#000000">
            <g id="eggs" transform="translate(284.000000, 144.000000)">
                <g id="Shape">
                    <path d="M80.5004028,23.4765533 C71.9821224,13.2509908 58.0653458,-4.54747351e-13 48.5170841,-4.54747351e-13 C48.5087103,-4.54747351e-13 48.498243,-4.54747351e-13 48.4895701,-4.54747351e-13 C35.4939813,0.01425 22.8802991,10.2035937 12.9722617,28.6917812 C5.08441121,43.4096562 -0.00717757009,61.5258594 6.37496156e-14,74.8448594 C0.0101682243,93.1923281 10.3401869,108.809141 27.1760748,116.320969 C29.3816822,125.02475 34.0456075,132.816828 40.8388785,138.931563 C50.2026168,147.360438 62.8737196,152 76.5248598,152 C76.5463925,152 76.5685234,152 76.5903551,152 C101.156187,151.973281 120.590953,137.275 125.935551,116.300781 C129.144389,114.860053 129.119059,86.0549084 115.66462,60.7277303 C103.579637,37.9784724 82.0084049,21.6012006 80.5004028,23.4765533 Z M8.12800763,75.3957084 C8.11371002,49.7222324 28.1832333,5.47008311 48.7535054,5.44765625 C48.7591579,5.44765625 48.763148,5.44765625 48.7688005,5.44765625 C56.4881804,5.44765625 65.0670795,11.7502631 73.0251963,23.2324848 C60.2956675,25.9154626 48.1496807,37.1156996 38.3162494,55.4506457 C29.819811,71.2919231 24.149312,90.560882 23.4882968,105.494531 C13.7256886,98.6098155 8.13499019,87.9201194 8.12800763,75.3957084 Z M105.830437,59.0009794 C114.432827,74.2803324 120.217239,93.3079382 120.224292,106.348868 C120.237055,129.676621 101.881573,146.628421 76.5795566,146.65625 C76.5594042,146.65625 76.5402594,146.65625 76.5204429,146.65625 C64.5331207,146.65625 53.5060605,142.650491 45.4669303,135.373268 C37.250123,127.935438 32.9035851,117.934285 32.8972035,106.451468 C32.8824251,79.3660735 53.9688941,32.6797206 75.581005,32.65625 C75.5873866,32.65625 75.591417,32.65625 75.5974628,32.65625 C85.3848141,32.65625 96.4041492,42.2580676 105.830437,59.0009794 Z M58.7156179,119.132175 C60.3830772,120.694155 62.87024,121.554146 65.7197117,121.554146 C65.7264515,121.554146 65.7330092,121.553782 65.7399311,121.554146 C67.7500264,121.554146 69.3805079,123.18319 69.3828759,125.194939 C69.385244,127.207963 67.7558554,128.841563 65.7437564,128.84375 C65.7359237,128.84375 65.7275445,128.84375 65.7197117,128.84375 C61.013156,128.84375 56.7581658,127.28505 53.735099,124.452857 C50.9417314,121.835707 49.4334768,118.307356 49.3531459,114.234837 C49.3511422,114.18381 49.3454953,114.133876 49.3454953,114.082302 C49.3454953,114.063167 49.3480455,114.044761 49.3484098,114.025625 C49.3482277,113.984075 49.3454953,113.943617 49.3454953,113.902067 L49.3546031,113.902067 C49.4493244,111.97342 51.0375457,110.4375 52.9888045,110.4375 C54.9387882,110.4375 56.5262808,111.971415 56.6226415,113.898239 L56.6319315,113.898239 C56.6330244,116.107354 57.3146535,117.8195 58.7156179,119.132175 Z" fill-rule="nonzero"></path>
                </g>
            </g>
            <g id="fish" transform="translate(178.000000, 32.000000)">
                <g>
                    <path d="M183.263274,44.7216258 C174.688409,37.0640337 163.181539,30.4766104 150.856774,26.1675613 C150.848726,26.1644939 150.84106,26.1618098 150.833012,26.1587423 C150.819597,26.1541411 150.806566,26.1491564 150.793152,26.1441718 C145.105064,24.1595092 139.260603,22.6621933 133.398512,21.6740798 C129.937981,17.4766104 118.460239,5.28949387 98.5858521,0.669861963 C95.2836109,-0.0985429448 91.864856,0.674079755 89.2026732,2.78834356 C86.5240097,4.91641104 84.9878696,8.09777607 84.9878696,11.5172546 L84.9878696,27.3075153 C66.3211615,35.5264571 51.5227821,48.9305982 43.5665117,57.1606595 C42.3818288,51.1775307 39.7545233,43.6134969 33.9556712,37.8121166 C22.913323,26.7653374 5.13848054,27.2243098 4.39187354,27.2496166 C2.21260895,27.3220859 0.462988327,29.0724693 0.391317121,31.252684 C0.366021401,32.0038344 -0.0877684825,49.7783742 10.95343,60.8243865 C13.6926498,63.5648006 16.8320019,65.5747699 20.0288444,67.0525307 C16.8320019,68.5613497 13.6918833,70.5916411 10.9530467,73.3316718 C-0.0877684825,84.3819018 0.366404669,102.156058 0.391317121,102.907209 C0.462988327,105.087423 2.21260895,106.83819 4.39187354,106.91066 C4.46277821,106.91296 4.68622374,106.919479 5.04228016,106.919479 C8.44723735,106.919479 23.9596459,106.34816 33.9556712,96.3439417 C39.8031984,90.493865 42.4251381,82.7569018 43.594107,76.6606595 C49.4297529,82.6863497 58.9355778,91.4842791 70.9533444,99.0072853 L70.9533444,113.481979 C70.9533444,117.032975 72.5856848,120.286043 75.4318366,122.406442 C77.389572,123.864647 79.6945486,124.619632 82.0489669,124.619632 C83.1228852,124.619632 84.2071518,124.462807 85.2730214,124.143788 C95.2893599,121.15184 102.867344,115.691334 106.38,112.814417 C109.764261,113.310583 113.136257,113.565184 116.429683,113.565184 C127.73572,113.565184 139.048656,111.662577 150.053444,107.911043 C150.060726,107.908742 150.068008,107.906058 150.07529,107.903758 C175.739331,99.1529908 196.615198,80.7622699 196.615198,66.9006902 C196.617498,60.2879601 191.874934,52.4118098 183.263274,44.7216258 Z M16.8093891,54.967408 C11.1446809,49.3002301 9.4134572,40.7952454 8.88952918,35.7381135 C13.9348755,36.2507669 22.4062588,37.9712423 28.1020117,43.6694785 C33.7617374,49.3312883 35.4941109,57.6767638 36.0203385,62.6319018 C31.0470467,62.2158742 22.4898113,60.6503067 16.8093891,54.967408 Z M28.1016284,90.4869632 C22.4419027,96.1510736 13.9486732,97.8842025 8.89106226,98.4091258 C9.41728988,93.3473926 11.1508132,84.8519939 16.8093891,79.1882669 C22.4924942,73.502684 31.0320992,71.7802914 36.0306868,71.2634202 C35.5186401,76.3094325 33.7992977,84.7868098 28.1016284,90.4869632 Z M93.2683852,11.5168712 C93.2683852,10.6391871 93.6631518,9.82208589 94.3522685,9.27492331 C94.747035,8.96088957 95.5794942,8.47430982 96.711286,8.73773006 C107.165317,11.1679448 115.001241,16.0682515 120.19108,20.3067485 C118.934342,20.2592025 117.680288,20.235046 116.431216,20.235046 C108.875461,20.235046 101.107759,21.5417945 93.2683852,24.1211656 L93.2683852,11.5168712 L93.2683852,11.5168712 Z M82.9040389,116.206672 C82.0301868,116.468175 81.1088093,116.306365 80.3786829,115.76227 C79.9513385,115.444018 79.2342432,114.724693 79.2342432,113.481979 L79.2342432,103.733896 C84.7023346,106.558666 90.1612276,108.782592 95.5710623,110.396856 C92.2500409,112.479294 87.9371206,114.703221 82.9040389,116.206672 Z M116.431599,105.281058 C112.982183,105.281058 109.423918,104.965874 105.859905,104.345092 C96.5460973,102.71434 86.9111109,98.9432515 77.2228502,93.1345859 C61.9599494,83.982362 50.467644,72.0736196 45.8419767,66.898773 C51.7328132,60.3059816 68.7660311,42.7933282 90.6805564,33.8907209 C90.7070019,33.8799847 90.7338307,33.8703988 90.759893,33.8592791 C99.5079961,30.3159509 108.144568,28.5184049 116.431216,28.5184049 C121.092911,28.5184049 125.830492,28.8799847 130.514033,29.5939417 C134.089161,30.1376534 137.662757,30.8945552 141.199175,31.8477761 C132.511245,41.0740031 126.996395,54.6644939 126.996395,67.8270706 C126.996395,79.845092 132.320761,92.8148006 140.69901,102.08589 C132.690232,104.205138 124.555358,105.281058 116.431599,105.281058 Z M149.58279,99.2902607 C140.954267,91.5095859 135.276144,79.1545245 135.276144,67.8278374 C135.276144,55.4382669 141.320671,42.1717791 150.176089,34.7304448 C173.876646,43.5981595 188.337749,59.2396472 188.337749,66.8995399 C188.337749,74.6894172 173.653584,90.4658742 149.58279,99.2902607 Z" id="Shape" fill-rule="nonzero"></path>
                    <path d="M164.864471,61.830138 C162.578274,61.830138 160.724405,63.684816 160.724405,65.9720092 L160.724405,67.827454 C160.724405,70.1146472 162.578274,71.9693252 164.864471,71.9693252 C167.150667,71.9693252 169.004537,70.1146472 169.004537,67.827454 L169.004537,65.9720092 C169.004154,63.684816 167.150284,61.830138 164.864471,61.830138 Z" id="Path" fill-rule="nonzero"></path>
                    <path d="M121.993591,39.0586656 C120.335572,37.4831288 117.715549,37.5513804 116.141082,39.2097393 C115.744016,39.6280675 115.352315,40.0663344 114.975946,40.5130368 C113.502661,42.2626534 113.725724,44.8753834 115.474961,46.3489264 C116.251463,47.0038344 117.198136,47.3236196 118.14021,47.3236196 C119.318761,47.3236196 120.489646,46.8224693 121.307924,45.8500767 C121.578895,45.5283742 121.860597,45.2131902 122.144599,44.913727 C123.719449,43.2549847 123.651611,40.633819 121.993591,39.0586656 Z" id="Path" fill-rule="nonzero"></path>
                    <path d="M121.516039,89.7300613 C116.914134,84.4294479 114.274947,76.3891871 114.274947,67.6706288 C114.274947,62.7894939 115.12887,57.9873466 116.745496,53.782592 C117.566074,51.6476227 116.501354,49.2515337 114.367698,48.4302147 C112.233276,47.6088957 109.838232,48.6740798 109.01727,50.8090491 C107.040372,55.952454 105.995198,61.7829755 105.995198,67.669862 C105.995198,78.3554448 109.37371,88.3757669 115.26493,95.1614264 C116.083975,96.1046779 117.234547,96.5874233 118.392018,96.5874233 C119.354405,96.5874233 120.321391,96.2534509 121.105175,95.5728528 C122.831033,94.0724693 123.015385,91.4566718 121.516039,89.7300613 Z" id="Path" fill-rule="nonzero"></path>
                </g>
            </g>
            <g id="honey" transform="translate(85.000000, 95.000000) scale(-1, 1) translate(-85.000000, -95.000000) ">
                <g>
                    <path d="M132.139738,30.4673765 C131.163943,30.4673765 130.205547,30.864563 129.515386,31.5545654 C128.825225,32.2445679 128.427948,33.2012939 128.427948,34.178314 C128.427948,35.153885 128.825225,36.1106111 129.515386,36.802063 C130.205547,37.4920654 131.163943,37.8892515 132.139738,37.8892515 C133.115533,37.8892515 134.073929,37.4920654 134.76409,36.802063 C135.454251,36.1106111 135.851528,35.153885 135.851528,34.178314 C135.851528,33.2012939 135.454251,32.2445679 134.76409,31.5545654 C134.073929,30.864563 133.115533,30.4673765 132.139738,30.4673765 Z" id="Path" fill-rule="nonzero"></path>
                    <path d="M158.886378,15.6671143 L104.895776,15.6671143 C104.540546,9.76875314 99.6296737,5.0793457 93.6444117,5.0793457 C91.8378139,5.0793457 90.1312603,5.50842285 88.616096,6.26655588 C86.7689001,2.55706787 82.9382162,0 78.5188658,0 C75.6117801,0 72.9584301,1.10603342 70.9560929,2.9194643 C68.9552062,1.10603342 66.3004061,0 63.39332,0 C58.9754197,0 55.143286,2.55706787 53.2960905,6.26655588 C51.7809258,5.50842285 50.0743723,5.0793457 48.2677741,5.0793457 C42.0519754,5.0793457 36.994661,10.135498 36.994661,16.3513184 L36.994661,58.6328125 L25.234375,58.6328125 C23.184191,58.6328125 21.5225846,60.2940367 21.5225846,62.34375 L21.5225846,68.2566071 C7.82520801,81.8450164 5.68434189e-14,100.570755 5.68434189e-14,119.893722 L5.68434189e-14,171.445312 C5.68434189e-14,181.676483 8.32543004,190 18.558952,190 L105.36265,190 C115.596172,190 123.921602,181.676483 123.921602,171.445312 L123.921602,119.328384 C123.921602,100.324325 116.309532,81.8058775 102.989134,68.2826995 L102.989134,62.34375 C102.989134,60.2940367 101.327528,58.6328125 99.2773438,58.6328125 L83.300696,58.6328125 L83.300696,52.4880218 C85.6046158,51.4051821 87.4837097,49.564209 88.616096,47.2898103 C90.1312603,48.0479429 91.8378139,48.4770201 93.6444117,48.4770201 C99.6296737,48.4770201 104.540546,43.7861635 104.895776,37.8892515 L117.292576,37.8892515 C119.342761,37.8892515 121.004367,36.2280273 121.004367,34.178314 C121.004367,32.1286011 119.342761,30.4673765 117.292576,30.4673765 L104.917525,30.4673765 L104.917525,23.0889893 L158.886378,23.0889893 C160.920613,23.0889893 162.576419,24.7429656 162.576419,26.7781829 C162.576419,28.8119507 160.920613,30.4673765 158.886378,30.4673765 L146.9869,30.4673765 C144.936715,30.4673765 143.275109,32.1286011 143.275109,34.178314 C143.275109,36.2265779 144.936715,37.8892515 146.9869,37.8892515 L158.886378,37.8892515 C165.015181,37.8892515 170,32.9041291 170,26.7781829 C170,20.6507875 165.013731,15.6671143 158.886378,15.6671143 Z M78.5188658,7.421875 C80.6429961,7.421875 82.3698483,9.14833078 82.3698483,11.2719727 L82.3698483,42.2843931 C82.3698483,44.4065855 80.6429961,46.1330413 78.5188658,46.1330413 C76.3947359,46.1330413 74.6678833,44.4065855 74.6678833,42.2843931 L74.6678833,11.2719727 C74.6678833,9.14833078 76.3947359,7.421875 78.5188658,7.421875 Z M50.4267025,65.6835938 C47.1136397,65.6835938 44.4182418,62.9888152 44.4182418,59.6765137 L44.4182418,47.7986147 C45.6202238,48.2363892 46.9164508,48.4770201 48.2677741,48.4770201 C50.0743723,48.4770201 51.7809258,48.0479429 53.2960905,47.2898103 C55.143286,50.9992983 58.9754197,53.5563658 63.39332,53.5563658 C66.3004061,53.5563658 68.9552062,52.4503327 70.9560929,50.6369019 C72.3306156,51.8820954 74.0154203,52.7924348 75.8771152,53.2403564 L75.8771152,85.2819824 C75.8771152,88.594284 73.1817173,91.2890625 69.8686545,91.2890625 C66.5555917,91.2890625 63.8601938,88.594284 63.8601938,85.2819824 L63.8601938,79.1139983 C63.858744,71.7080688 57.8328842,65.6835938 50.4267025,65.6835938 Z M59.5423374,11.2719727 C59.5423374,9.14833078 61.2706398,7.421875 63.39332,7.421875 C65.5174503,7.421875 67.2443025,9.14833078 67.2443025,11.2719727 L67.2443025,42.2843931 C67.2443025,44.4065855 65.5174503,46.1330413 63.39332,46.1330413 C61.2706398,46.1330413 59.5423374,44.4065855 59.5423374,42.2843931 L59.5423374,11.2719727 Z M44.4182418,16.3513184 C44.4182418,14.229126 46.145094,12.5012207 48.2677741,12.5012207 C50.3919044,12.5012207 52.1187566,14.229126 52.1187566,16.3513184 L52.1187566,37.2050474 C52.1187566,39.3272398 50.3919044,41.0551451 48.2677741,41.0551451 C46.145094,41.0551451 44.4182418,39.3272398 44.4182418,37.2050474 L44.4182418,16.3513184 Z M105.36265,182.578125 L25.2401747,182.578125 L25.2401747,157.597427 C25.2401747,155.547714 23.5785687,153.88649 21.5283843,153.88649 C19.4781999,153.88649 17.8165939,155.547714 17.8165939,157.597427 L17.8165939,182.550583 C12.0212712,182.166443 7.42358079,177.333527 7.42358079,171.445312 L7.42358079,119.893722 C7.42358079,119.41536 7.43083028,118.938446 7.44242963,118.461533 C22.1170512,104.928207 45.0692549,105.277557 59.3132505,119.51828 C68.0635065,128.267975 79.5541075,132.639923 91.0505082,132.639923 C99.9573553,132.639923 108.867102,130.010376 116.498021,124.754181 L116.498021,171.445312 C116.498021,177.584305 111.501604,182.578125 105.36265,182.578125 Z M95.5655534,66.0546875 L95.5655534,69.8265074 C95.5655534,70.8267212 95.9700807,71.7848968 96.6863401,72.4835969 L96.7878341,72.5821687 C108.37123,83.8758852 115.380134,99.2951203 116.371878,115.385513 C101.694357,128.860855 78.7856507,128.491211 64.5619541,114.270783 C49.3523132,99.0631867 25.8520403,97.0772552 8.47187168,108.304291 C10.941082,94.7361754 17.6817516,82.1044922 27.7891309,72.5198364 C28.528589,71.8182373 28.9461654,70.8455657 28.9461654,69.8265074 L28.9461654,66.0546875 L38.6098696,66.0546875 C40.8847914,70.2497866 45.3287903,73.1054688 50.4267025,73.1054688 C53.7412151,73.1054688 56.436613,75.8002473 56.436613,79.1125488 L56.436613,85.2819824 C56.436613,92.6864624 62.4610229,98.7109375 69.8686545,98.7109375 C77.2748362,98.7109375 83.300696,92.6864624 83.300696,85.2819824 L83.300696,66.0546875 L95.5655534,66.0546875 Z M97.4939444,37.2050474 C97.4939444,39.3272398 95.7670918,41.0551451 93.6444117,41.0551451 C91.5202817,41.0551451 89.7934291,39.3272398 89.7934291,37.2050474 L89.7934291,16.3513184 C89.7934291,14.229126 91.5202817,12.5012207 93.6444117,12.5012207 C95.7670918,12.5012207 97.4939444,14.229126 97.4939444,16.3513184 L97.4939444,37.2050474 Z" id="Shape" fill-rule="nonzero"></path>
                </g>
            </g>
            <g id="dairy" transform="translate(170.000000, 259.000000)">
                <g id="cheese">
                    <path d="M97.1182174,76.1717734 C97.1182174,68.5523477 90.9094543,62.3527018 83.2770919,62.3527018 C75.6464616,62.3527018 69.4376986,68.5523477 69.4376986,76.1717734 C69.4376986,83.7929283 75.6464616,89.9925742 83.2770919,89.9925742 C90.9094543,89.9925742 97.1182174,83.7929283 97.1182174,76.1717734 Z M76.0880892,76.1717734 C76.0880892,72.2150677 79.3128357,68.9933268 83.2770919,68.9933268 C87.2413485,68.9933268 90.4678267,72.2133384 90.4678267,76.1717734 C90.4678267,80.1302083 87.2413485,83.3502199 83.2770919,83.3502199 C79.3128357,83.3502199 76.0880892,80.1302083 76.0880892,76.1717734 Z" id="Shape" fill-rule="nonzero"></path>
                    <path d="M133.72654,120.496216 C141.35717,120.496216 147.565933,114.29657 147.565933,106.677144 C147.565933,99.0559896 141.35717,92.8563437 133.72654,92.8563437 C126.094177,92.8563437 119.885414,99.0559896 119.885414,106.677144 C119.885414,114.29657 126.094177,120.496216 133.72654,120.496216 L133.72654,120.496216 Z M133.72654,99.4986979 C137.689064,99.4986979 140.915543,102.71871 140.915543,106.677144 C140.915543,110.63385 137.690796,113.855591 133.72654,113.855591 C129.760551,113.855591 126.535805,110.635579 126.535805,106.677144 C126.535805,102.71871 129.760551,99.4986979 133.72654,99.4986979 L133.72654,99.4986979 Z" id="Shape" fill-rule="nonzero"></path>
                    <path d="M224.942535,60.2463788 L167.589844,36.6116334 C164.333923,35.2696738 160.574028,36.1326093 158.234268,38.7594603 L144.845162,53.7769571 L144.845162,49.2530313 C144.845162,48.8639323 144.770691,48.4644571 144.651192,48.1324258 C134.254761,19.1661582 116.160156,5.71197521 108.863777,1.27278646 C106.376808,-0.240376901 103.309662,-0.415039062 100.658165,0.805867292 L86.4239046,7.35483794 C84.1551514,8.39935292 82.8493197,10.7529702 83.1731795,13.2103476 C83.5628507,16.1709596 81.8119279,18.2011921 80.0419539,19.114278 C79.1933366,19.5535279 76.2110518,20.7848105 73.4556429,18.2375079 C71.2977295,16.2453204 68.1976774,15.7438151 65.5548401,16.9595338 L1.93276978,46.2370808 C0.774147145,46.7697142 -2.84217094e-14,47.9508464 -2.84217094e-14,49.2530313 L-2.84217094e-14,102.421264 C-2.84217094e-14,106.599324 3.40312947,109.997457 7.58733357,109.997457 L70.3798373,109.997457 C72.2173539,109.997457 73.7050326,108.510234 73.7050326,106.677144 C73.7050326,104.842326 72.2173539,103.355103 70.3798373,103.355103 L61.5767289,103.355103 C60.8337557,94.1723633 53.1165316,86.9264728 43.7332458,86.9264728 C34.3482283,86.9264728 26.632736,94.1723633 25.8897628,103.355103 L7.58733357,103.355103 C7.07123577,103.355103 6.65039062,102.936605 6.65039062,102.421264 L6.65039062,52.5733438 L138.194771,52.5733438 L138.194771,61.2372845 L100.647774,103.355103 L85.8991471,103.355103 C84.06163,103.355103 82.5739518,104.842326 82.5739518,106.677144 C82.5739518,108.510234 84.06163,109.997457 85.8991471,109.997457 L94.7282332,109.997457 L92.5530013,112.43754 C90.8990633,114.291382 90.8124695,117.049662 92.3451766,118.995158 C93.9731368,121.063436 94.3316345,123.752543 93.3011702,126.189168 C91.4827043,130.49001 86.4741288,131.733398 82.9030074,129.518128 C80.8230286,128.228048 78.1282349,128.617147 76.4985429,130.445048 L72.1238326,135.354614 C68.9042814,138.965454 70.2187728,144.682617 74.6956632,146.527812 L130.472351,169.512329 C131.172028,169.804586 131.991203,169.854736 132.779205,169.597066 C132.782669,169.595337 132.784401,169.595337 132.787865,169.595337 L219.956474,140.70516 C224.17012,139.307861 227,135.39266 227,130.960388 L227,110.443624 C227,108.610535 225.512321,107.123311 223.674805,107.123311 C221.837288,107.123311 220.349609,108.610535 220.349609,110.443624 L220.349609,130.960388 C220.349609,132.525431 219.350319,133.908895 217.86264,134.401754 L204.589569,138.801168 C202.755516,133.314005 197.565094,129.346924 191.461975,129.346924 C183.831344,129.346924 177.622581,135.54484 177.622581,143.165995 C177.622581,144.660136 177.859848,146.11969 178.322258,147.506612 L142.486351,159.383647 L220.349609,72.0404051 L220.349609,94.9471029 C220.349609,96.7819213 221.837288,98.2674154 223.674805,98.2674154 C225.512321,98.2674154 227,96.7819213 227,94.9471029 L227,63.3159382 C227,62.0137533 226.199875,60.7651772 224.942535,60.2463788 Z M43.7332458,93.5670978 C49.4466935,93.5670978 54.1816329,97.8420001 54.8968961,103.355103 L32.5695956,103.355103 C33.2848588,97.8402709 38.0180664,93.5670978 43.7332458,93.5670978 Z M68.3379594,22.9897056 C68.5301969,22.9032389 68.7639998,22.9499309 68.9389193,23.1124877 C72.8235091,26.7025756 78.3828202,27.4479167 83.0987093,25.0130208 C87.615433,22.6801555 90.2045821,18.0593873 89.8443526,13.0944824 L103.441284,6.83603911 C104.078613,6.54378255 104.812927,6.58355724 105.403496,6.94325776 C111.717903,10.7858275 126.861397,22.0230104 136.682846,45.9309896 L18.4860075,45.9309896 L68.3379594,22.9897056 Z M191.461975,135.987549 C194.62957,135.987549 197.326095,138.043721 198.280357,140.891927 L184.636665,145.414124 C184.395935,144.694723 184.272972,143.937276 184.272972,143.165995 C184.272972,139.20756 187.497719,135.987549 191.461975,135.987549 Z M192.125282,53.9066569 C190.798668,57.5002032 187.353973,59.9956257 183.336029,59.9956257 C176.519379,59.9956257 171.9888,52.9157513 174.801361,46.767985 L192.125282,53.9066569 Z M77.0908431,139.769592 L80.6030806,135.83018 C87.6691207,139.299215 96.3025057,136.162211 99.4268034,128.772786 C101.243538,124.478861 100.819229,119.775085 98.3287964,115.944621 L163.201278,43.1744387 C163.663689,42.6556394 164.410126,42.4861654 165.052651,42.7490234 L168.661873,44.2362467 C164.013527,54.8664348 171.883156,66.6362507 183.336029,66.6362507 C190.121506,66.6362507 195.949257,62.4702962 198.275162,56.4418541 L218.075661,64.6008301 L130.825653,162.473958 L77.2328569,140.388692 C76.981735,140.284932 76.9089966,139.973653 77.0908431,139.769592 L77.0908431,139.769592 Z" id="Shape" fill-rule="nonzero"></path>
                    <path d="M39.8677063,67.0564779 C39.8677063,72.4554441 44.2666626,76.8496705 49.6735685,76.8496705 C55.0822066,76.8496705 59.4811629,72.4554441 59.4811629,67.0564779 C59.4811629,61.6575116 55.0822066,57.2650144 49.6735685,57.2650144 C44.2666626,57.2632852 39.8677063,61.6575116 39.8677063,67.0564779 Z M52.8307723,67.0564779 C52.8307723,68.7944538 51.4141008,70.2073163 49.6735685,70.2073163 C47.9330367,70.2073163 46.5180969,68.7944538 46.5180969,67.0564779 C46.5180969,65.3185019 47.9330367,63.9056394 49.6735685,63.9056394 C51.4141008,63.9056394 52.8307723,65.3185019 52.8307723,67.0564779 Z" id="Shape" fill-rule="nonzero"></path>
                    <path d="M168.784836,102.865702 C174.193474,102.865702 178.59243,98.4732057 178.59243,93.0725098 C178.59243,87.6735431 174.193474,83.2810468 168.784836,83.2810468 C163.37793,83.2810468 158.978973,87.6735431 158.978973,93.0725098 C158.978973,98.4732057 163.37793,102.865702 168.784836,102.865702 L168.784836,102.865702 Z M168.784836,89.9216718 C170.525368,89.9216718 171.942039,91.336263 171.942039,93.0725098 C171.942039,94.8104857 170.525368,96.2250774 168.784836,96.2250774 C167.046036,96.2250774 165.629364,94.8104857 165.629364,93.0725098 C165.629364,91.336263 167.046036,89.9216718 168.784836,89.9216718 Z" id="Shape" fill-rule="nonzero"></path>
                    <path d="M134.859184,140.132751 C134.859184,134.732056 130.458496,130.339559 125.05159,130.339559 C119.644684,130.339559 115.245728,134.732056 115.245728,140.132751 C115.245728,145.531718 119.644684,149.924215 125.05159,149.924215 C130.458496,149.924215 134.859184,145.531718 134.859184,140.132751 L134.859184,140.132751 Z M125.05159,143.28359 C123.311058,143.28359 121.896118,141.868998 121.896118,140.132751 C121.896118,138.394775 123.311058,136.980184 125.05159,136.980184 C126.792122,136.980184 128.207062,138.394775 128.207062,140.132751 C128.207062,141.870728 126.792122,143.28359 125.05159,143.28359 Z" id="Shape" fill-rule="nonzero"></path>
                    <path d="M100.226929,18.5159303 C94.8200228,18.5159303 90.4210661,22.908427 90.4210661,28.3091225 C90.4210661,33.7080892 94.8200228,38.1005859 100.226929,38.1005859 C105.635567,38.1005859 110.034523,33.7080892 110.034523,28.3091225 C110.034523,22.908427 105.635567,18.5159303 100.226929,18.5159303 Z M100.226929,31.4599609 C98.4863969,31.4599609 97.0714567,30.0453697 97.0714567,28.3091225 C97.0714567,26.5711465 98.4863969,25.1565553 100.226929,25.1565553 C101.967461,25.1565553 103.384132,26.5711465 103.384132,28.3091225 C103.384132,30.0453697 101.967461,31.4599609 100.226929,31.4599609 Z" id="Shape" fill-rule="nonzero"></path>
                </g>
            </g>
        </g>
        <g id="Group" transform="translate(50.000000, 148.000000)" fill="#000000">
            <g id="chicken" fill-rule="nonzero">
                <path d="M158.062728,190.241935 C149.542108,199.911296 133.022776,207.706146 119.745057,207.706146 L104.009845,207.706146 C103.911317,207.702661 103.813286,207.696688 103.71426,207.698679 C88.0954905,207.544364 75.4350667,194.791962 75.4350667,179.131965 C75.4350667,176.382668 73.2067286,174.154059 70.4588762,174.154059 L55.5153762,174.154059 C45.2584524,174.154059 36.913381,165.806109 36.913381,155.545648 C36.913381,152.79635 34.6850429,150.567741 31.9371905,150.567741 C20.0321524,150.567741 10.3464952,140.879241 10.3464952,128.969599 L10.3464952,119.6639 L41.5133714,119.6639 C61.7913476,119.6639 81.8623143,116.521348 101.169933,110.322858 C103.786912,109.482588 105.227021,106.680026 104.387538,104.062145 C103.548055,101.444762 100.746957,100.00316 98.1289833,100.84343 C79.8061524,106.725823 60.7577929,109.708087 41.513869,109.708087 L5.37229524,109.708087 C2.62444286,109.708087 0.396104762,111.936696 0.396104762,114.685994 L0.396104762,128.970595 C0.396104762,144.807307 12.1190143,157.956448 27.3401857,160.190035 C29.5635476,173.740395 41.3521429,184.110868 55.5173667,184.110868 L65.8046452,184.110868 C68.0926976,201.77049 82.381331,215.714602 100.193605,217.472301 L107.655402,239.718068 C102.688667,240.445341 98.8579952,244.723851 98.8579952,249.891416 C98.8579952,252.640714 101.086333,254.869323 103.834186,254.869323 C106.582038,254.869323 108.810376,252.640714 108.810376,249.891416 C108.810376,249.704745 108.96215,249.552919 109.148757,249.552919 L114.495674,249.552919 C114.508114,249.552919 114.520057,249.554412 114.532498,249.554412 C114.54444,249.554412 114.556881,249.552919 114.568824,249.552919 L119.637571,249.552919 C119.824179,249.552919 119.97645,249.704745 119.97645,249.891416 C119.97645,252.640714 122.204788,254.869323 124.95264,254.869323 C127.700493,254.869323 129.928831,252.640714 129.928831,249.891416 C129.928831,249.777422 129.915395,249.666415 129.911912,249.552919 L131.487871,249.552919 C131.500312,249.552919 131.512255,249.554412 131.524695,249.554412 C131.536638,249.554412 131.549079,249.552919 131.561021,249.552919 L136.630267,249.552919 C136.816874,249.552919 136.968648,249.704745 136.968648,249.891416 C136.968648,252.640714 139.196986,254.869323 141.944838,254.869323 C144.69269,254.869323 146.921029,252.640714 146.921029,249.891416 C146.921029,244.215109 142.304617,239.597105 136.630267,239.597105 L135.103571,239.597105 L127.560662,217.108416 C136.011726,215.915212 148.127393,210.90644 155.2528,206.010171 L158.062728,190.241935 Z M197.719273,149.592906 C200.05191,143.195425 201.297355,136.348505 201.297355,129.320044 C201.297355,105.983617 197.000912,83.1265626 188.527952,61.3835637 L187.712852,59.2923451 C192.61241,56.8377392 195.983779,51.76575 195.983779,45.9211897 L195.983779,45.2516613 L203.62671,45.2516613 C206.004333,45.2516613 208.050045,43.5691288 208.509348,41.2354861 C208.96865,38.9013456 207.713157,36.5686985 205.513183,35.6671996 L197.108398,32.222986 L201.822343,22.5668424 C203.077338,19.9962514 202.922081,17.0134897 201.407329,14.5872579 C199.893074,12.1610262 197.281569,10.7129531 194.42225,10.7129531 L191.157371,10.7129531 L188.283621,4.68968595 C186.944529,1.88264433 184.18125,0.0866155774 181.073121,0.00248895337 C177.975443,-0.0756641825 175.110152,1.56256493 173.620779,4.29344457 L171.173986,8.7810275 L164.257081,4.68570362 C161.717233,3.18187799 158.547898,3.15599288 155.983169,4.61850188 C153.419436,6.08101088 151.826557,8.82284192 151.826557,11.7752384 L151.826557,15.0711105 C149.201617,15.5604387 146.9479,17.3022083 145.82776,19.8175445 C144.463288,22.8824417 145.077848,26.4316892 147.393767,28.8589166 L154.71424,36.5298709 C154.651043,36.7399385 154.58685,36.9495084 154.529624,37.1625628 L149.806721,54.7106797 C146.769255,65.9965899 140.558969,76.0803356 131.846655,83.8707596 C129.797957,85.7031271 129.6218,88.8501597 131.453536,90.8995639 C133.285271,92.9494659 136.430224,93.1256838 138.479917,91.2933164 C148.635824,82.2111255 155.875683,70.4562965 159.41674,57.2986934 L164.139643,39.7510743 C165.584231,34.3833975 170.473836,30.6345359 176.030748,30.6345359 C180.275438,30.6345359 184.29421,32.8810652 186.519064,36.4980123 L187.013698,37.3019442 C186.395655,38.1312635 186.029905,39.1592012 186.029905,40.2732567 L186.029905,45.9206919 C186.029905,48.6709854 183.793107,50.9090523 181.043264,50.9090523 C179.399629,50.9090523 177.861986,51.7209489 176.934921,53.0779263 C176.007857,54.4349036 175.809805,56.1627351 176.40645,57.694437 L179.252831,64.9985196 C187.275445,85.5841551 191.342983,107.224609 191.342983,129.319048 C191.342983,136.31493 189.859363,143.094655 187.117778,149.2763 L197.719273,149.592906 Z M122.265995,239.596608 C121.887307,239.596608 121.519567,239.642902 121.165262,239.723046 C120.665652,239.64788 120.157583,239.596608 119.637074,239.596608 L118.111871,239.596608 L110.755071,217.662457 L117.249498,217.662457 L124.606298,239.596608 L122.265995,239.596608 Z M176.031743,20.6787224 C169.802548,20.6787224 164.038129,23.28615 159.932771,27.5790967 L156.750995,24.2453926 C157.67806,23.8526358 158.533964,23.2866478 159.280393,22.5618645 C160.891186,20.9968107 161.778938,18.8976274 161.778938,16.6510981 L161.778938,14.7873698 L167.635417,18.2544818 C169.547269,19.3864578 171.872643,19.6970792 174.014893,19.107695 C176.157143,18.5178131 177.995845,17.0607798 179.060252,15.1094403 L180.749669,12.0111912 L182.642612,15.9790807 C184.002107,18.8274389 186.920145,20.6682688 190.075548,20.6682688 L191.674398,20.6682688 L189.456012,25.2121021 C185.632805,22.3298941 180.916869,20.6787224 176.031743,20.6787224 Z" id="XMLID_1334_"></path>
                <path d="M59.1703881,133.580634 C57.5541214,133.580634 56.0388714,134.36565 55.1063333,135.685791 C54.1737952,137.005932 53.9399143,138.696927 54.479831,140.220664 C60.03525,155.90555 74.5786643,166.64638 91.0657786,167.466241 C93.2533119,175.851027 100.888779,182.056486 109.94644,182.056486 C124.563502,182.056486 137.804648,173.404884 143.679538,160.015808 L143.813895,159.71116 C145.875033,155.013012 146.920033,150.029629 146.920033,144.899896 L146.920033,120.997482 C146.920033,119.292548 146.048205,117.706587 144.608593,116.793639 C143.169976,115.881189 141.363619,115.767693 139.821995,116.494467 C116.116419,127.671859 89.7346476,133.580136 63.5275405,133.580136 L59.1703881,133.580136 L59.1703881,133.580634 Z M136.967652,128.666942 L136.967652,144.900394 C136.967652,148.644278 136.204802,152.281634 134.7005,155.710416 L134.56664,156.015064 C130.278657,165.787193 120.614398,172.10117 109.945943,172.10117 C104.675162,172.10117 100.387676,167.811708 100.387676,162.539607 C100.387676,159.790309 98.1593381,157.5617 95.4114857,157.5617 L93.0970595,157.5617 C82.4898119,157.5617 72.7728048,152.12483 67.1308,143.501105 C91.0165143,143.035172 114.938057,137.946258 136.967652,128.666942 Z" id="XMLID_1360_"></path>
                <path d="M156.264324,155.001065 C153.856345,156.326681 152.978545,159.353746 154.304202,161.762555 C155.210367,163.410243 156.912224,164.341609 158.668321,164.341609 C159.47944,164.341609 160.302005,164.14299 161.063362,163.723851 C173.559074,156.844881 181.349798,143.708185 181.39309,129.440509 C181.40155,126.691211 179.180676,124.455633 176.432326,124.447171 C173.704379,124.442691 171.448671,126.660348 171.44071,129.409646 C171.407369,140.060375 165.592193,149.866354 156.264324,155.001065 Z" id="XMLID_1361_"></path>
                <path d="M174.637912,104.568896 C171.908471,104.885989 169.951833,107.356524 170.268817,110.087403 C170.270807,110.101341 170.277276,110.156596 170.279267,110.170534 L170.292205,110.279053 C170.599733,112.803847 172.745964,114.655628 175.2256,114.655628 C175.42614,114.655628 175.629667,114.643681 175.83369,114.618792 C178.561638,114.286268 180.504343,111.804283 180.171933,109.075395 L180.157005,108.954929 L180.155512,108.939996 C179.837533,106.208618 177.368845,104.251305 174.637912,104.568896 Z" id="XMLID_1363_"></path>
                <path d="M118.308431,103.35578 C119.617169,103.35578 120.901026,102.823144 121.8261,101.897253 C122.751671,100.966385 123.284621,99.6870627 123.284621,98.3728953 C123.284621,97.0637059 122.752169,95.7843838 121.8261,94.8535153 C120.901026,93.9276246 119.617169,93.3949886 118.308431,93.3949886 C116.999693,93.3949886 115.715836,93.9276246 114.790264,94.8535153 C113.864693,95.7843838 113.33224,97.0637059 113.33224,98.3728953 C113.33224,99.6870627 113.864195,100.966385 114.790264,101.897253 C115.715836,102.823642 116.999693,103.35578 118.308431,103.35578 Z" id="XMLID_1368_"></path>
            </g>
            <g id="beef" transform="translate(131.000000, 93.000000)">
                <g id="XMLID_23_">
                    <g fill-rule="nonzero">
                        <path d="M251.895508,59.9830086 L240.59904,49.6253153 L232.909549,37.9234748 C231.611817,35.9485546 229.975914,34.2384589 228.108238,32.8492564 L228.524831,32.0672982 C233.81017,22.1506454 232.137803,10.0428074 224.363895,1.93737423 C223.320414,0.849541104 221.845354,0.292358282 220.341822,0.41801227 C218.841288,0.545668712 217.478119,1.34464785 216.631446,2.5926773 L200.031657,27.0736785 L170.913592,17.2090896 C169.487485,16.7259975 167.919017,16.913227 166.64626,17.7197153 C165.373003,18.5257031 164.530825,19.8643436 164.353998,21.3631804 C163.097225,32.000216 168.191251,42.3684221 177.026123,47.9752933 C175.469143,48.6060663 173.79378,48.9454822 172.099434,48.9454822 L71.6220566,48.9454822 C59.5693268,48.9454822 48.1414868,53.1601472 39.0363785,60.8871166 C38.6292761,60.7799853 38.2046907,60.716908 37.764121,60.716908 L31.8069385,60.716908 C18.4994341,60.716908 7.67300683,71.5672049 7.67300683,84.9040491 L7.67300683,130.197556 C3.16490927,132.317153 0,137.214155 0,142.904628 C0,146.130081 1.02200195,151.13972 2.5435161,155.368903 C5.03058732,162.283877 8.43676098,165.789674 12.6681288,165.789674 C16.8994966,165.789674 20.3061698,162.283377 22.7927415,155.368903 C24.3137561,151.13972 25.335758,146.130081 25.335758,142.904628 C25.335758,137.214155 22.1713483,132.317654 17.6632507,130.197055 L17.6632507,84.9035485 C17.6632507,77.6902086 23.0679727,71.7228957 30.0311727,70.844319 C23.7298263,80.012054 20.5614205,91.0961374 21.1888078,102.382469 C21.993522,116.868721 28.9742049,130.329217 40.3406049,139.314228 C44.8936585,142.913139 47.5170966,148.311254 47.5380761,154.122375 L47.699918,198.861202 C47.7099083,201.619082 49.9432273,203.849315 52.69504,203.849315 L68.1429541,203.849315 C68.4311727,203.849315 68.7118985,203.819279 68.9866302,203.772721 C69.261362,203.819779 69.5420878,203.849315 69.8303063,203.849315 L85.2782205,203.849315 C88.0370263,203.849315 90.2733424,201.607568 90.2733424,198.84318 L90.2733424,181.624579 C90.2733424,176.005193 91.9282263,170.570533 95.0581698,165.907318 C97.3029776,162.56372 98.9773424,158.938778 100.069776,155.099072 L151.646907,155.099072 C152.73934,158.938277 154.413206,162.56372 156.658513,165.907318 C159.788457,170.570032 161.44334,176.005193 161.44334,181.624579 L161.44334,198.843681 C161.44334,201.608069 163.679657,203.849816 166.438462,203.849816 L180.98226,203.849816 C181.393358,203.849816 181.79097,203.794248 182.173596,203.700633 C182.556222,203.794748 182.953834,203.849816 183.364933,203.849816 L199.277393,203.849816 C202.036199,203.849816 204.272515,201.608069 204.272515,198.843681 L204.272515,153.95467 L209.036862,142.068103 C209.199703,141.661605 209.359547,141.255107 209.516894,140.847107 C210.509424,138.267445 209.227177,135.369894 206.65319,134.375175 C204.078205,133.378454 201.188027,134.665531 200.195497,137.244692 C200.055134,137.609639 199.911774,137.973585 199.766416,138.33653 L194.64242,151.120697 C194.404652,151.714425 194.282271,152.3472 194.282271,152.986984 L194.282271,193.837546 L188.360055,193.837546 L188.360055,181.62508 C188.360055,174.007745 186.117245,166.640216 181.873889,160.318469 C179.807906,157.241198 178.395286,153.841531 177.660004,150.212083 C177.661003,150.172034 177.665998,150.133487 177.665998,150.093438 C177.665998,149.384069 177.517143,148.710744 177.251403,148.098994 L173.790782,129.761021 C173.278283,127.044191 170.665834,125.261507 167.954482,125.772133 C165.243629,126.285762 163.461869,128.904972 163.974868,131.621801 L166.515887,145.086802 L84.992,145.086802 L87.5330185,131.621801 C88.045518,128.904972 86.263758,126.286263 83.5534049,125.772133 C80.8440507,125.260005 78.2296039,127.043691 77.7171044,129.761021 L73.9293034,149.83412 C73.2174985,153.606243 71.7724098,157.133566 69.6334985,160.318469 C65.390642,166.639715 63.1478322,174.007244 63.1478322,181.624579 L63.1478322,193.837546 L57.6721795,193.837546 L57.52832,154.086832 C57.4963512,145.204447 53.4867668,136.954837 46.5275629,131.453595 C37.4094673,124.245762 31.8094361,113.446528 31.1635668,101.825787 C30.5181971,90.2050454 34.8869307,78.8496294 43.150361,70.672108 C50.7834068,63.1178503 60.8950322,58.9577521 71.6225561,58.9577521 L172.099934,58.9577521 C178.221955,58.9577521 184.20761,56.4616933 188.522396,52.1083583 C188.715208,51.9141202 188.883044,51.7053644 189.036894,51.4896 C195.879212,49.4541055 201.463259,44.4424638 204.262525,37.9074552 L216.871711,38.8831509 C219.977179,39.1229448 222.853869,40.8230282 224.567196,43.4302233 L232.597854,55.6517006 C232.824632,55.9966233 233.09337,56.3125104 233.398072,56.5918528 L245.152593,67.3695607 C245.539216,67.7244957 245.760999,68.2291141 245.760999,68.7542577 L245.760999,74.6319607 C245.760999,75.6662282 244.921319,76.5077595 243.889327,76.5077595 L238.738857,76.5077595 C238.117463,76.5077595 237.501565,76.6239018 236.92313,76.8501791 L230.037854,79.5429791 C227.118205,80.6848785 224.048203,81.2640883 220.913264,81.2640883 L211.010935,81.2640883 C208.252129,81.2640883 206.015813,83.5058356 206.015813,86.2702233 L206.015813,99.3717791 C206.015813,102.136167 208.252129,104.377914 211.010935,104.377914 C213.76974,104.377914 216.006057,102.136167 216.006057,99.3717791 L216.006057,91.2758577 L220.913264,91.2758577 C225.295984,91.2758577 229.587793,90.4663656 233.669807,88.8699092 L239.678939,86.5200294 L243.889327,86.5200294 C250.42994,86.5200294 255.751243,81.1869939 255.751243,74.6319607 L255.751243,68.7542577 C255.750244,65.4266798 254.345616,62.229762 251.895508,59.9830086 Z M12.6681288,153.819004 C11.3219434,150.745237 9.9902439,145.687038 9.9902439,142.904628 C9.9902439,140.870636 11.241522,139.08695 12.6681288,139.08695 C14.0942361,139.08695 15.3455141,140.870636 15.3455141,142.904628 C15.3455141,145.687038 14.0143141,150.745237 12.6681288,153.819004 Z M178.367813,193.837546 L171.431586,193.837546 L171.431586,181.62508 C171.431586,174.007244 169.188777,166.639715 164.94542,160.318469 C163.836503,158.666945 162.9184,156.921806 162.188113,155.099573 L168.57138,155.099573 C169.663813,158.939279 171.338178,162.564221 173.582985,165.907818 C176.713428,170.570533 178.367813,176.005693 178.367813,181.62508 L178.367813,193.837546 Z M77.9219044,165.90882 C80.1672117,162.565222 81.8410771,158.939779 82.9340098,155.100074 L89.5260722,155.100074 C88.7957854,156.922307 87.877682,158.667445 86.7687649,160.31947 C82.5254088,166.640216 80.282599,174.007745 80.282599,181.62558 L80.282599,193.837546 L73.1375766,193.837546 L73.1375766,181.62508 C73.1375766,176.006194 74.791961,170.571033 77.9219044,165.90882 Z M186.877502,41.675573 L184.91392,40.8480589 C179.799415,38.6919166 176.108519,34.2524761 174.738857,29.0736294 L194.216835,35.6727166 C192.549463,38.4451141 189.955996,40.5847362 186.877502,41.675573 Z M211.20974,28.4023067 L220.648023,14.4827485 C222.140066,18.6153129 221.881319,23.2825325 219.713936,27.349016 L218.819309,29.027573 C218.428191,28.9735067 218.035075,28.9299534 217.639961,28.899416 L211.20974,28.4023067 Z" id="XMLID_48_"></path>
                        <path d="M218.042068,61.4197693 C218.971161,60.4891288 219.505639,59.197546 219.505639,57.8809325 C219.505639,56.564319 218.971161,55.2727362 218.042068,54.3415951 C217.112976,53.410454 215.824234,52.8747975 214.510517,52.8747975 C213.1968,52.8747975 211.908059,53.4099534 210.978966,54.3415951 C210.044878,55.2727362 209.515395,56.564319 209.515395,57.8809325 C209.515395,59.197546 210.044878,60.4891288 210.978966,61.4197693 C211.908059,62.3509104 213.191805,62.8870675 214.510517,62.8870675 C215.824234,62.8870675 217.112976,62.351411 218.042068,61.4197693 Z" id="XMLID_53_"></path>
                        <path d="M121.581268,70.1910184 C120.652176,71.1271656 120.117698,72.4132417 120.117698,73.735362 C120.117698,75.0519755 120.652176,76.3385521 121.581268,77.2741988 C122.510361,78.2053399 123.799102,78.7364908 125.11282,78.7364908 C126.426537,78.7364908 127.715278,78.2053399 128.644371,77.2741988 C129.573463,76.3385521 130.107941,75.0519755 130.107941,73.735362 C130.107941,72.4132417 129.573463,71.1216589 128.644371,70.1910184 C127.715278,69.2598773 126.426537,68.729227 125.11282,68.729227 C123.799102,68.729227 122.510361,69.2593767 121.581268,70.1910184 Z" id="XMLID_54_"></path>
                        <path d="M67.9256663,68.7267239 C65.1668605,68.7267239 62.9305444,70.9684712 62.9305444,73.7328589 C62.9305444,76.4972466 65.1668605,78.7389939 67.9256663,78.7389939 L105.134829,78.7389939 C107.893635,78.7389939 110.129951,76.4972466 110.129951,73.7328589 C110.129951,70.9684712 107.893635,68.7267239 105.134829,68.7267239 L67.9256663,68.7267239 Z" id="XMLID_55_"></path>
                        <path d="M209.999922,114.555387 C208.68121,114.555387 207.392468,115.090542 206.463376,116.022184 C205.534283,116.953325 204.999805,118.244908 204.999805,119.561521 C204.999805,120.878135 205.534283,122.169718 206.463376,123.100358 C207.392468,124.036506 208.68121,124.567656 209.999922,124.567656 C211.313639,124.567656 212.597385,124.036506 213.531473,123.100358 C214.460566,122.169718 214.995044,120.878135 214.995044,119.561521 C214.995044,118.244908 214.460566,116.953325 213.531473,116.022184 C212.597385,115.090542 211.313639,114.555387 209.999922,114.555387 Z" id="XMLID_56_"></path>
                    </g>
                </g>
            </g>
        </g>
        <path d="M147.184812,124.184812 L222.184812,124.184812 C229.364514,124.184812 235.184812,130.00511 235.184812,137.184812 L235.184812,158.184812 C235.184812,165.364514 229.364514,171.184812 222.184812,171.184812 L147.184812,171.184812 L147.184812,246.184812 C147.184812,253.364514 141.364514,259.184812 134.184812,259.184812 L113.184812,259.184812 C106.00511,259.184812 100.184812,253.364514 100.184812,246.184812 L100.184812,171.184812 L25.1848122,171.184812 C18.0051105,171.184812 12.1848122,165.364514 12.1848122,158.184812 L12.1848122,137.184812 C12.1848122,130.00511 18.0051105,124.184812 25.1848122,124.184812 L100.184812,124.184812 L100.184812,49.1848122 C100.184812,42.0051105 106.00511,36.1848122 113.184812,36.1848122 L134.184812,36.1848122 C141.364514,36.1848122 147.184812,42.0051105 147.184812,49.1848122 L147.184812,124.184812 Z" id="Combined-Shape" fill="#FF5392" transform="translate(123.684812, 147.684812) rotate(-45.000000) translate(-123.684812, -147.684812) "></path>
    </g>
</svg>